<?xml version="1.0" standalone="no"?><!DOCTYPE svg PUBLIC "-//W3C//DTD SVG 1.1//EN" "http://www.w3.org/Graphics/SVG/1.1/DTD/svg11.dtd"><svg t="1677843083861" class="icon" viewBox="0 0 1024 1024" version="1.1" xmlns="http://www.w3.org/2000/svg" p-id="24383" xmlns:xlink="http://www.w3.org/1999/xlink" width="128" height="128"><path d="M180.56 371.68l65.12-40.56v237.52l-65.12-36.16z m76.72-40.56l344.56-53.6V624l-344.56-55.36z" fill="#8BD1AE" p-id="24384"></path><path d="M484.16 898.4c-38.48 10.4-77.12-9.12-86.4-43.44l-84-312c-9.28-34.32 14.4-70.64 52.88-80.96s77.12 9.12 86.4 43.44l84 312c9.28 34.32-14.4 70.64-52.88 80.96zM616 242.88v450c0 43.04 165.04 55.04 165.04 33.28V209.6C781.36 187.84 616 200 616 242.88z m312-25.2a12.32 12.32 0 0 1 1.92 17.28l-71.44 89.36a12.32 12.32 0 0 1-17.28 1.92l-13.6-10.88a12.32 12.32 0 0 1-1.92-17.28l71.44-89.36a12.32 12.32 0 0 1 17.28-1.92z m0 417.2a12.32 12.32 0 0 0 1.92-17.28L859.12 528a12.32 12.32 0 0 0-17.28-1.92l-13.6 10.88a12.32 12.32 0 0 0-1.92 17.28l71.44 89.36a12.32 12.32 0 0 0 17.28 1.92l13.6-10.88z m45.36-196.8a12.32 12.32 0 0 1-12.32 12.32h-114.4a12.32 12.32 0 0 1-12.32-12.32v-17.6a12.32 12.32 0 0 1 12.96-12.48h114.4a12.32 12.32 0 0 1 12.32 12.32z" fill="#8BD1AE" p-id="24385"></path></svg>