<?xml version="1.0" standalone="no"?><!DOCTYPE svg PUBLIC "-//W3C//DTD SVG 1.1//EN" "http://www.w3.org/Graphics/SVG/1.1/DTD/svg11.dtd"><svg t="1677836180477" class="icon" viewBox="0 0 1070 1024" version="1.1" xmlns="http://www.w3.org/2000/svg" p-id="2236" xmlns:xlink="http://www.w3.org/1999/xlink" width="133.75" height="128"><path d="M856.669091 20.573091l186.647273 93.090909-47.010909 48.779636v509.765819a46.545455 46.545455 0 0 1-41.146182 46.219636l-5.399273 0.325818h-93.090909v-93.090909H116.829091v46.545455a46.545455 46.545455 0 0 1-41.099636 46.219636l-5.445819 0.325818h-46.545454l0.465454-651.636364 92.625455 46.545455h739.793454v-93.090909z m0 139.729454H116.922182v418.816h739.84V160.302545zM207.732364 858.391273l-46.545455-46.545455h602.856727l48.779637-46.545454 93.090909 93.090909zM207.732364 998.027636l-46.545455-46.545454h602.856727l48.779637-46.545455 93.090909 93.090909z" fill="#8a8a8a" p-id="2237"></path></svg>