<?xml version="1.0" standalone="no"?><!DOCTYPE svg PUBLIC "-//W3C//DTD SVG 1.1//EN" "http://www.w3.org/Graphics/SVG/1.1/DTD/svg11.dtd"><svg t="1677909486846" class="icon" viewBox="0 0 1024 1024" version="1.1" xmlns="http://www.w3.org/2000/svg" p-id="17985" xmlns:xlink="http://www.w3.org/1999/xlink" width="128" height="128"><path d="M319.5 431.9c-24.2 0-43.9 20.5-43.9 45.7 0 25.2 19.7 45.7 43.9 45.7s43.9-20.5 43.9-45.7c0.1-25.2-19.6-45.7-43.9-45.7zM505.3 431.9c-24.2 0-43.9 20.5-43.9 45.7 0 25.2 19.7 45.7 43.9 45.7s43.9-20.5 43.9-45.7c0.1-25.2-19.6-45.7-43.9-45.7zM691.1 431.9c-24.2 0-43.9 20.5-43.9 45.7 0 25.2 19.7 45.7 43.9 45.7s43.9-20.5 43.9-45.7c0-25.2-19.7-45.7-43.9-45.7z" p-id="17986" fill="#515151"></path><path d="M784 191H226.6c-49.8 0-90.4 42.1-90.4 93.9v361.3c0 53.1 43.2 99.8 92.5 99.8h142.6l0.7 0.8c24.4 26 125.8 130.9 126.8 132 1.7 1.8 4 2.8 6.4 2.8 2.4 0 4.7-1 6.4-2.7 2-2.3 75.8-85.8 123.6-132.1l0.7-0.7h145.9c49.3 0 92.5-46.6 92.5-99.8V284.8c0.1-51.7-40.5-93.8-90.3-93.8z m49.4 455.3c0 13.6-5.5 27.8-15.1 38.9-9.9 11.6-23.1 18.2-36.1 18.2H639.6c-15.9 0-30.8 16.7-30.9 16.9l-0.1 0.1-102 105.8-101.9-105.7c-1-0.9-18.9-17.1-33.7-17.1H228.4c-13 0-26.1-6.6-36.1-18.2-9.6-11.1-15.1-25.3-15.1-38.9V284.5c0-28 22-50.7 49-50.7h558.1c27 0 49 22.8 49 50.7v361.8z" p-id="17987" fill="#515151"></path></svg>