<?xml version="1.0" standalone="no"?><!DOCTYPE svg PUBLIC "-//W3C//DTD SVG 1.1//EN" "http://www.w3.org/Graphics/SVG/1.1/DTD/svg11.dtd"><svg t="1677848010163" class="icon" viewBox="0 0 1024 1024" version="1.1" xmlns="http://www.w3.org/2000/svg" p-id="32921" xmlns:xlink="http://www.w3.org/1999/xlink" width="128" height="128"><path d="M515.84 511.3856m-450.816 0a450.816 450.816 0 1 0 901.632 0 450.816 450.816 0 1 0-901.632 0Z" fill="#FFBC42" p-id="32922"></path><path d="M683.4688 274.7904c-10.752-5.5808-20.1728-9.216-27.904-15.0528-4.096-3.072-8.2432-10.752-7.1168-14.848 1.1264-3.8912 9.4208-8.6016 14.0288-8.0896 13.8752 1.4848 28.3648 3.3792 41.1136 8.704 17.2032 7.168 15.6672 14.5408 7.0656 30.9248-6.0416 11.52-4.5056 26.9824-6.5024 41.728 21.6064 0.1536 37.4784 5.888 49.152 20.992 19.5072 25.2928 14.2336 60.2624-12.5952 77.824-17.3568 11.3664-23.8592 27.8016-24.7808 47.2576-0.512 10.9568-0.1024 22.016-0.1024 32.9728 0 29.2352 5.4272 34.2016 34.0992 39.5776 16.384 3.072 33.2288 7.8848 47.7696 15.7696 42.6496 23.0912 65.6896 71.3728 59.3408 119.5008-6.3488 48.3328-41.8304 87.5008-90.5728 100.1984-45.2096 11.7248-94.72-5.2736-122.9824-43.6224-8.3456-11.264-14.6432-24.32-20.224-37.2736-3.2256-7.5264-6.1952-11.1104-15.0016-11.0592-54.9888 0.4096-109.9776 0.3584-164.9664 0.0512-9.216-0.0512-13.0048 2.9696-16.0768 11.9808-17.8176 52.3264-64.3584 85.2992-117.3504 84.3776-52.5312-0.9216-95.8464-34.3552-113.3056-87.296-4.3008-12.9536-10.9568-25.5488-12.8-38.8608-4.3008-30.8736 1.2288-59.0848 23.808-83.6096 12.3904-13.4656 20.1216-31.232 29.5936-47.3088 8.8576-15.0528 6.656-21.0944-9.7792-27.4944-13.2608-5.1712-13.4144-16.0256-12.288-27.3408 1.1776-12.2368 9.5744-14.08 20.0704-14.0288 76.4416 0.2048 152.8832-0.1536 229.3248 0.4608 9.3696 0.0512 25.9072 3.4304 26.7776 7.7824 2.6112 12.9536 2.304 28.5184-2.816 40.4992-6.7584 15.8208-19.7632 28.8768-28.928 43.8272-3.2768 5.376-6.1952 14.2336-3.8912 18.8928 2.0992 4.352 11.2128 7.1168 17.3568 7.424 20.8384 0.9728 41.8304 1.4848 62.6176 0.1536 6.7584-0.4608 15.8208-5.5808 19.1488-11.264 19.3536-33.1776 37.4272-67.1232 55.5008-101.0688 2.6624-5.0688 3.7376-11.4176 3.9424-17.2544 0.5632-15.9232-0.4096-31.9488 0.512-47.8208 0.9728-16.64-3.2256-25.7536-22.528-25.2928-15.7184 0.4096-16.7424-13.0048-16.6912-25.088 0.0512-12.032 3.072-22.4768 17.7152-22.784 21.9648-0.4096 43.9808-0.1024 65.9968-0.2048 21.2992-0.1024 24.32-3.2256 24.3712-25.1392-0.0512-6.5024-0.1024-13.056-0.1024-19.0976z m129.1776 380.8768c-0.1536-41.4208-32.8192-74.5984-73.8816-74.9568-41.216-0.4096-75.6224 33.8432-75.6736 75.264-0.0512 41.3184 34.3552 75.264 75.9296 74.9568 41.216-0.4096 73.728-33.6384 73.6256-75.264z m-425.8304 1.0752c0.3584-41.5744-33.3312-75.9808-74.6496-76.1344-40.6528-0.2048-74.2912 33.1264-74.9056 74.24-0.6144 41.472 33.28 76.032 74.6496 76.0832 40.6528 0 74.5984-33.5872 74.9056-74.1888z" fill="#FFFFFF" p-id="32923"></path><path d="M353.024 266.1376c33.024 0 65.9968-0.1536 99.0208 0.0512 26.9824 0.2048 39.3728 13.2096 38.9632 39.68-0.3584 24.7296-0.0512 49.5104-0.4608 74.24-0.4096 27.1872-11.0592 37.9392-38.2464 38.2464-65.4336 0.6656-130.8672 1.1264-196.3008 1.3312-30.464 0.1024-41.2672-11.3152-41.2672-42.0352 0-24.7296-0.1024-49.5104 0.0512-74.24 0.1536-25.4464 11.6224-37.0176 37.5808-37.2224 33.5872-0.256 67.1232-0.0512 100.6592-0.0512z m1.6896 42.496c-23.04 0-46.0288 0.1536-69.0688-0.0512-12.288-0.1024-22.6816 3.0208-23.3472 17.1008-0.6656 14.5408 10.0352 18.0736 22.1184 18.1248 45.4656 0.1536 90.9824 0.1024 136.448 0.0512 11.6224 0 21.5552-3.7888 21.7088-17.0496 0.2048-13.9264-9.4208-18.3296-22.1184-18.176-21.9136 0.1536-43.8272 0-65.7408 0zM743.936 690.2272c-22.2208 0.4096-39.7824-16.896-39.8336-39.2192-0.0512-22.6816 17.1008-40.2432 39.1168-40.192 21.3504 0.0512 39.6288 18.688 39.4752 40.2432-0.1536 21.0432-17.7152 38.8096-38.7584 39.168zM278.3232 650.3424c0.2048-22.7328 17.5104-39.9872 39.6288-39.4752 21.6576 0.512 39.5264 19.3024 38.912 40.9088-0.5632 21.0944-18.3808 38.4-39.5776 38.5536-22.016 0.1536-39.168-17.4592-38.9632-39.9872z" fill="#FFFFFF" p-id="32924"></path><path d="M648.6016 248.8832l0.4608-5.1712c-0.256 0.4096-0.512 0.8192-0.6144 1.2288-0.3072 1.0752-0.2048 2.4576 0.1536 3.9424z" fill="#FFBC42" p-id="32925"></path></svg>