<svg id="_34404" data-name="34404" xmlns="http://www.w3.org/2000/svg" xmlns:xlink="http://www.w3.org/1999/xlink" width="400" height="400" viewBox="0 0 400 400">
  <metadata><?xpacket begin="﻿" id="W5M0MpCehiHzreSzNTczkc9d"?>
<x:xmpmeta xmlns:x="adobe:ns:meta/" x:xmptk="Adobe XMP Core 5.6-c142 79.160924, 2017/07/13-01:06:39        ">
   <rdf:RDF xmlns:rdf="http://www.w3.org/1999/02/22-rdf-syntax-ns#">
      <rdf:Description rdf:about=""/>
   </rdf:RDF>
</x:xmpmeta>
                                                                                                    
                                                                                                    
                                                                                                    
                                                                                                    
                                                                                                    
                                                                                                    
                                                                                                    
                                                                                                    
                                                                                                    
                                                                                                    
                                                                                                    
                                                                                                    
                                                                                                    
                                                                                                    
                                                                                                    
                                                                                                    
                                                                                                    
                                                                                                    
                                                                                                    
                                                                                                    
                           
<?xpacket end="w"?></metadata>
<defs>
    <style>
      .cls-1 {
        fill: #ecf4ff;
      }

      .cls-1, .cls-2 {
        fill-opacity: 0.5;
      }

      .cls-1, .cls-10, .cls-11, .cls-12, .cls-2, .cls-3, .cls-4, .cls-5, .cls-6, .cls-7, .cls-8 {
        fill-rule: evenodd;
      }

      .cls-2 {
        fill: #deebfd;
      }

      .cls-3 {
        fill: url(#linear-gradient);
      }

      .cls-4 {
        fill: none;
        stroke: #7dbcf7;
        stroke-width: 20px;
      }

      .cls-5 {
        fill: #f5b08a;
      }

      .cls-6 {
        fill: #555;
      }

      .cls-7 {
        fill: #3f1f1f;
      }

      .cls-8 {
        fill: #2c88f3;
      }

      .cls-9 {
        fill: #7dbcf7;
      }

      .cls-10 {
        fill: url(#linear-gradient-2);
      }

      .cls-11 {
        fill: #e7f2fe;
      }

      .cls-12 {
        fill: url(#linear-gradient-3);
      }
    </style>
    <linearGradient id="linear-gradient" x1="205.625" y1="270.688" x2="205.625" y2="381.906" gradientUnits="userSpaceOnUse">
      <stop offset="0" stop-color="#deecff"/>
      <stop offset="0.617" stop-color="#fff"/>
      <stop offset="1" stop-color="#fff" stop-opacity="0"/>
    </linearGradient>
    <linearGradient id="linear-gradient-2" x1="192.172" y1="135.438" x2="75.828" y2="19.094" gradientUnits="userSpaceOnUse">
      <stop offset="0" stop-color="#7dbcf7"/>
      <stop offset="1" stop-color="#e7f2fe"/>
    </linearGradient>
    <linearGradient id="linear-gradient-3" x1="256.282" y1="213.906" x2="117.28" y2="64.844" gradientUnits="userSpaceOnUse">
      <stop offset="0" stop-color="#7dbcf7"/>
      <stop offset="0.424" stop-color="#aad3fa" stop-opacity="0"/>
      <stop offset="1" stop-color="#e7f2fe"/>
    </linearGradient>
  </defs>
  <g id="组_7" data-name="组 7">
    <path id="矩形_654" data-name="矩形 654" class="cls-1" d="M160.022,72.3h102.8V303.1h-102.8V72.3Z"/>
    <path id="矩形_657_拷贝_7" data-name="矩形 657 拷贝 7" class="cls-2" d="M172.822,89.9h9.6v9.6h-9.6V89.9Zm16.4,0h9.6v9.6h-9.6V89.9Zm17.6,0h9.6v9.6h-9.6V89.9Zm16.4,0h9.6v9.6h-9.6V89.9Zm18,0h9.6v9.6h-9.6V89.9Zm-68.4,20h9.6v9.6h-9.6v-9.6Zm16.4,0h9.6v9.6h-9.6v-9.6Zm17.6,0h9.6v9.6h-9.6v-9.6Zm16.4,0h9.6v9.6h-9.6v-9.6Zm18,0h9.6v9.6h-9.6v-9.6Zm-68.4,20h9.6v9.6h-9.6v-9.6Zm16.4,0h9.6v9.6h-9.6v-9.6Zm17.6,0h9.6v9.6h-9.6v-9.6Zm16.4,0h9.6v9.6h-9.6v-9.6Zm18,0h9.6v9.6h-9.6v-9.6Zm-68.4,20h9.6v9.6h-9.6v-9.6Zm16.4,0h9.6v9.6h-9.6v-9.6Zm17.6,0h9.6v9.6h-9.6v-9.6Zm16.4,0h9.6v9.6h-9.6v-9.6Zm18,0h9.6v9.6h-9.6v-9.6Zm-68.4,20h9.6v9.6h-9.6v-9.6Zm16.4,0h9.6v9.6h-9.6v-9.6Zm17.6,0h9.6v9.6h-9.6v-9.6Zm16.4,0h9.6v9.6h-9.6v-9.6Zm18,0h9.6v9.6h-9.6v-9.6Zm-68.4,20h9.6v9.6h-9.6v-9.6Zm16.4,0h9.6v9.6h-9.6v-9.6Zm17.6,0h9.6v9.6h-9.6v-9.6Zm16.4,0h9.6v9.6h-9.6v-9.6Zm18,0h9.6v9.6h-9.6v-9.6Zm-68.4,20h9.6v9.6h-9.6v-9.6Zm16.4,0h9.6v9.6h-9.6v-9.6Zm17.6,0h9.6v9.6h-9.6v-9.6Zm16.4,0h9.6v9.6h-9.6v-9.6Zm18,0h9.6v9.6h-9.6v-9.6Zm-68.4,20h9.6v9.6h-9.6v-9.6Zm16.4,0h9.6v9.6h-9.6v-9.6Zm17.6,0h9.6v9.6h-9.6v-9.6Zm16.4,0h9.6v9.6h-9.6v-9.6Zm18,0h9.6v9.6h-9.6v-9.6Z"/>
    <path id="矩形_654_拷贝" data-name="矩形 654 拷贝" class="cls-1" d="M26.317,117.443L116.387,98.7l42.139,202.461L68.457,319.9Z"/>
    <path id="矩形_657_拷贝_8" data-name="矩形 657 拷贝 8" class="cls-2" d="M40.746,130.547l8.411-1.75,1.753,8.421L42.5,138.969Zm14.369-2.99,8.411-1.751,1.753,8.421-8.411,1.751Zm15.421-3.21,8.411-1.75,1.753,8.421-8.411,1.75Zm14.369-2.99,8.411-1.751,1.753,8.421-8.411,1.751Zm15.771-3.283,8.412-1.751,1.752,8.422-8.411,1.75ZM44.4,148.092l8.411-1.751,1.753,8.421-8.411,1.751ZM58.766,145.1l8.411-1.751,1.753,8.422-8.411,1.75Zm15.421-3.209,8.411-1.751,1.753,8.421-8.411,1.751ZM88.556,138.9l8.411-1.751,1.753,8.421-8.411,1.751Zm15.771-3.283,8.411-1.75,1.753,8.421-8.411,1.751ZM48.049,165.636l8.411-1.751,1.753,8.422-8.411,1.75Zm14.369-2.991,8.411-1.75,1.753,8.421-8.411,1.751Zm15.42-3.209,8.411-1.751L88,166.106l-8.411,1.751Zm14.369-2.991,8.412-1.751,1.752,8.422-8.411,1.75Zm15.77-3.282,8.412-1.751,1.752,8.421-8.411,1.751ZM51.7,183.18l8.411-1.75,1.753,8.421L53.453,191.6Zm14.369-2.99,8.411-1.751,1.753,8.421-8.411,1.751Zm15.42-3.21,8.411-1.751,1.753,8.422-8.411,1.75Zm14.369-2.991,8.411-1.75,1.753,8.421-8.411,1.751Zm15.771-3.282,8.411-1.751,1.753,8.422-8.411,1.75ZM55.352,200.725l8.411-1.751,1.753,8.421L57.1,209.146Zm14.369-2.991,8.411-1.751,1.753,8.422-8.411,1.75Zm15.42-3.21,8.411-1.75,1.753,8.421-8.411,1.751Zm14.369-2.99,8.411-1.751,1.753,8.421-8.412,1.751Zm15.771-3.283,8.411-1.75,1.753,8.421-8.412,1.75ZM59,218.269l8.411-1.751,1.753,8.422-8.411,1.75Zm14.369-2.991,8.411-1.75,1.753,8.421-8.411,1.75Zm15.421-3.209,8.411-1.751,1.753,8.421-8.411,1.751Zm14.369-2.991,8.411-1.751,1.753,8.422-8.411,1.75Zm15.771-3.282,8.411-1.751,1.753,8.421-8.411,1.751ZM62.655,235.813l8.411-1.75,1.753,8.421-8.411,1.751Zm14.369-2.99,8.411-1.751,1.753,8.421-8.411,1.751Zm15.421-3.21,8.411-1.751,1.753,8.422-8.411,1.75Zm14.369-2.991,8.411-1.75,1.753,8.421-8.411,1.751Zm15.771-3.282L131,221.589l1.753,8.421-8.411,1.751ZM66.307,253.358l8.411-1.751,1.753,8.421-8.411,1.751Zm14.369-2.991,8.411-1.751,1.753,8.421-8.411,1.751Zm15.421-3.21,8.412-1.75,1.752,8.421-8.411,1.751Zm14.369-2.99,8.412-1.751,1.752,8.421-8.411,1.751Zm15.771-3.283,8.412-1.751,1.752,8.422-8.411,1.75Z"/>
    <path id="矩形_654_拷贝_2" data-name="矩形 654 拷贝 2" class="cls-1" d="M297.76,122.773l77.328,15.155-34,173.5-77.329-15.155Z"/>
    <path id="矩形_657_拷贝_9" data-name="矩形 657 拷贝 9" class="cls-2" d="M304.79,137.894l7.228,1.416-1.414,7.215-7.228-1.416Zm12.345,2.419,7.218,1.415-1.414,7.215-7.218-1.415Zm13.238,2.595,7.218,1.414-1.414,7.216-7.218-1.415Zm12.335,2.417,7.218,1.415-1.414,7.215-7.218-1.415Zm13.543,2.655,7.218,1.414-1.414,7.215-7.218-1.414Zm-54.407,4.942,7.229,1.416-1.414,7.215-7.229-1.416Zm12.346,2.419,7.218,1.415-1.414,7.215-7.218-1.415Zm13.238,2.595,7.218,1.414-1.414,7.216-7.218-1.415Zm12.335,2.417,7.218,1.415-1.414,7.215-7.218-1.415Zm13.543,2.655,7.218,1.414-1.414,7.215-7.218-1.414ZM298.9,167.96l7.229,1.417-1.415,7.215-7.228-1.417Zm12.345,2.42,7.218,1.414-1.414,7.216-7.218-1.415Zm13.239,2.594,7.218,1.415-1.414,7.215-7.218-1.415Zm12.334,2.418,7.218,1.414-1.414,7.216-7.218-1.415Zm13.543,2.654,7.219,1.415-1.415,7.215-7.218-1.415Zm-54.406,4.942,7.228,1.417-1.416,7.226-7.229-1.417Zm12.345,2.42,7.218,1.414-1.416,7.226-7.218-1.415ZM321.535,188l7.218,1.415-1.416,7.226-7.218-1.415Zm12.335,2.418,7.218,1.415-1.416,7.225-7.218-1.415Zm13.543,2.654,7.218,1.415-1.416,7.226L346,200.3ZM293,198.027l7.229,1.416-1.414,7.216-7.229-1.417Zm12.345,2.419,7.219,1.415-1.415,7.215-7.218-1.415Zm13.239,2.595,7.218,1.415-1.414,7.215-7.218-1.415Zm12.335,2.417,7.218,1.415-1.414,7.215-7.218-1.414Zm13.543,2.655,7.218,1.414-1.414,7.216-7.218-1.415Zm-54.409,4.952,7.228,1.417-1.414,7.215-7.228-1.417Zm12.345,2.42,7.218,1.415-1.414,7.215-7.218-1.415Zm13.238,2.594,7.218,1.415-1.414,7.215-7.218-1.414Zm12.335,2.418,7.218,1.415-1.414,7.215-7.218-1.415Zm13.543,2.654,7.218,1.415-1.414,7.215-7.218-1.415Zm-54.407,4.942,7.229,1.417-1.414,7.215-7.229-1.417Zm12.346,2.42,7.218,1.415-1.414,7.215-7.218-1.415Zm13.238,2.595,7.218,1.414-1.414,7.215-7.218-1.414Zm12.335,2.417,7.218,1.415-1.414,7.215-7.218-1.415Zm13.543,2.654,7.218,1.415-1.414,7.215-7.218-1.415Zm-54.409,4.953,7.229,1.417-1.415,7.215-7.228-1.417Zm12.345,2.419,7.218,1.415-1.414,7.215-7.218-1.414Zm13.239,2.595,7.218,1.415-1.414,7.215-7.218-1.415Zm12.334,2.418,7.218,1.414-1.414,7.215-7.218-1.414Zm13.543,2.654,7.219,1.415-1.415,7.215-7.218-1.415Z"/>
    <path id="椭圆_655" data-name="椭圆 655" class="cls-3" d="M205.622,270.7c91.9,0,166.4,24.893,166.4,55.6s-74.5,55.6-166.4,55.6-166.4-24.893-166.4-55.6S113.722,270.7,205.622,270.7Z"/>
  </g>
  <path id="形状_905" data-name="形状 905" class="cls-4" d="M90.622,169.1l-33.2,58,66-.4"/>
  <path id="形状_906" data-name="形状 906" class="cls-4" d="M114.222,290.3V160.7"/>
  <path id="形状_905_拷贝" data-name="形状 905 拷贝" class="cls-4" d="M275.622,169.1l-33.2,58,66-.4"/>
  <path id="形状_906_拷贝" data-name="形状 906 拷贝" class="cls-4" d="M298.822,290.3V160.7"/>
  <path id="椭圆_906" data-name="椭圆 906" class="cls-4" d="M176.5,166.074c19.561,0,35.418,25.263,35.418,56.426s-15.857,56.426-35.418,56.426-35.418-25.263-35.418-56.426S156.939,166.074,176.5,166.074Z"/>
  <g id="_22_拷贝" data-name="22 拷贝">
    <path id="tou" class="cls-5" d="M335.405,217.254c9.09,0,5.091,13.315-1.454,13.315S325.952,217.254,335.405,217.254Z"/>
    <path id="形状_79" data-name="形状 79" class="cls-6" d="M333.951,223.791s-5.1-.364-5.333-2.664c-0.1-.989-1.474-3.756,0-4.357,1.829-.747,4.469-2.548,6.3-2.421,3.951,0.272,7.142,2.037,6.787,6.536-0.178,2.249-.412,5.69-2.424,6.779-1.157.627-2,1.011-2.909,0.726-0.67-.21-1.395-1.155-2.182-0.726C331.591,229.787,333.951,223.791,333.951,223.791Z"/>
    <path id="形状_77" data-name="形状 77" class="cls-7" d="M326.194,308.768c-0.848.3-6.385-.407-6.544,1.453-0.19,2.215,5.575,4.116,5.575,4.116s4.2,1.372,6.3-1.211a5.714,5.714,0,0,0-.97-2.663C329.32,309.124,327.03,308.478,326.194,308.768Z"/>
    <path id="形状_78" data-name="形状 78" class="cls-7" d="M347.04,304.9s2.578,3.73,1.7,4.6-6.3.484-6.3,0.484l-4.848-.968,5.817-3.632Z"/>
    <path id="tui" class="cls-6" d="M333.709,267.853l0.969,22.031,7.514,16.221a4.773,4.773,0,0,0,2.424.242,5.644,5.644,0,0,0,2.182-1.21l-6.545-15.5,1.939-22.757Z"/>
    <path id="tui-2" data-name="tui" class="cls-6" d="M324.013,264.464l-4.848,27.115,4.6,19.853a10,10,0,0,0,3.636.242,11.605,11.605,0,0,0,3.394-1.211l-4.848-19.852,9.7-22.274Z"/>
    <path id="形状_80" data-name="形状 80" class="cls-5" d="M310.439,215.559s-0.2-5.181-2.667-5.568c-6.644-1.042,0,7.263,0,7.263Z"/>
    <path id="ge" class="cls-8" d="M339.041,232.022s10.1,8.151,10.181,10.653-7.03,10.894-7.03,10.894l-2.181-2.663,4.121-7.5-8.727-7.263Z"/>
    <path id="yi" class="cls-8" d="M334.193,228.39c-1.744,0-4.273-1.073-6.06,1.453-3.549,5.019-6.3,34.863-6.3,34.863s-0.969,5.084,11.15,5.084,10.423-5.81,10.423-5.81,0.171-23.435-4.363-32.684A5.282,5.282,0,0,0,334.193,228.39Z"/>
    <path id="ge-2" data-name="ge" class="cls-8" d="M332.012,231.054l-14.059-2.421-7.272-13.316-3.636,1.453s4.848,14.2,6.06,15.736,17.695,4.116,17.695,4.116Z"/>
  </g>
  <g id="组_9" data-name="组 9">
    <circle id="椭圆_820" data-name="椭圆 820" class="cls-9" cx="119.297" cy="66.25" r="42.859"/>
    <path id="椭圆_818" data-name="椭圆 818" class="cls-10" d="M118.82,56.1c41.783-29.918,82.453-44.693,90.838-33s-18.688,45.425-60.47,75.343-82.453,44.693-90.839,33S77.037,86.022,118.82,56.1Z"/>
    <path id="椭圆_818_拷贝" data-name="椭圆 818 拷贝" class="cls-11" d="M131.368,74.759c12.535-8.975,24.736-13.408,27.251-9.9s-5.606,13.628-18.141,22.6-24.736,13.408-27.251,9.9S118.833,83.734,131.368,74.759Z"/>
    <path id="形状_824" data-name="形状 824" class="cls-12" d="M158.312,65.61l101.71,67.114L141.68,213.9,113.534,96.93s0.224-11.842,18.871-23.969C150.244,61.359,158.312,65.61,158.312,65.61Z"/>
  </g>
</svg>
