<?xml version="1.0" standalone="no"?><!DOCTYPE svg PUBLIC "-//W3C//DTD SVG 1.1//EN" "http://www.w3.org/Graphics/SVG/1.1/DTD/svg11.dtd"><svg t="1677835874592" class="icon" viewBox="0 0 1113 1024" version="1.1" xmlns="http://www.w3.org/2000/svg" p-id="54211" xmlns:xlink="http://www.w3.org/1999/xlink" width="139.125" height="128"><path d="M280.30887 791.017739H776.904348v44.521739H280.30887z" fill="#8a8a8a" p-id="54212"></path><path d="M194.56 504.431304l133.565217 89.043479-44.521739 44.521739v311.652174a44.521739 44.521739 0 0 1-44.521739 44.521739h-44.521739v-489.739131zM776.904348 504.431304l178.086956 89.043479-44.521739 44.521739v311.652174a44.521739 44.521739 0 0 1-44.521739 44.521739h-89.043478v-489.739131z" fill="#8a8a8a" p-id="54213"></path><path d="M482.793739 14.692174l133.565218 44.521739C413.606957 375.629913 213.704348 530.610087 16.473043 524.065391c0 0 355.773217-107.564522 466.320696-509.328695zM606.831304 74.796522c89.444174 164.374261 248.56487 272.027826 477.406609 322.916174 0 0-75.01913 63.087304-110.636522 132.986434-0.845913 0.311652-363.78713-161.435826-381.328695-431.949913l14.558608-23.952695z" fill="#8a8a8a" p-id="54214"></path></svg>