<svg viewBox="0 0 1024 1024" xmlns="http://www.w3.org/2000/svg" id="a9c461f8-89f5-4c3c-b774-0ebb6a710d70"><defs><style>.ed67aef7-638c-41fb-9491-355e9dc858ba{fill:none;}.a988692d-5a6e-4b73-b50b-12b587cb7817{fill:#e61f19;opacity:0.2;}.f03a64c8-d046-465d-9721-313d1be2a845{fill:#040000;}.b3c0f27a-eaac-4b2e-85e5-a9628893f8c7{fill:#fff;}.a474825b-97c2-4616-bdb9-6459db3f2319{fill:#231815;}.fdab315e-de6e-4c1a-a0e3-0d768241b707{fill:#060001;}</style></defs><title>党建1024px尺寸</title><rect height="1024" width="1024" class="ed67aef7-638c-41fb-9491-355e9dc858ba"></rect><path d="M852.32,442.43a7,7,0,0,1-10.89-8.71c6.24-7.8,21.36-18.16,40.59-13.1,28.56-59.69,42.49-123.68-36.41-211.27-173.53-192.66-365.92-116.88-502.68-17-137,100-62.84,281.59-62.84,281.59s46.36,60-128.47,148.16C82,657.17,56.76,723.33,62.41,773c21.66,13,35.47-.24,35.6-.39a7,7,0,0,1,9.87,9.86c-4.69,4.7-14.35,10.26-26.89,10.26a45.88,45.88,0,0,1-15.3-2.75c17,63.32,85.44,119.3,163.11,119.3L790,888.49s168.21-68.85,60.92-238.42c-55-86.87-9.46-149.85,24.67-216.51C861.41,431.44,852.78,441.86,852.32,442.43Z" class="a988692d-5a6e-4b73-b50b-12b587cb7817"></path><path d="M504.71,429.48s-46.5,43.35-27.9,113.09S342,564.32,342,564.32,365.22,434.13,504.71,429.48Z" class="f03a64c8-d046-465d-9721-313d1be2a845"></path><path d="M890.62,634.07S858.07,420.19,639.54,410.89c-54.63-2.33-93.79,2.61-130.18,13.95-81.72,25.44-93,172-60.45,246.42l9.3,74.4,302.22,4.64,14-79Z" class="b3c0f27a-eaac-4b2e-85e5-a9628893f8c7"></path><path d="M760.43,752.63h0L458.17,748a2.33,2.33,0,0,1-2.27-2l-9.26-74.06c-23.28-53.55-22.41-137.25,2-190.74,13.87-30.38,34.62-50.62,60-58.52,38.35-11.94,78.75-16.28,131-14.06,217.92,9.28,253,223,253.28,225.16a2.33,2.33,0,0,1-1.59,2.56L776.42,673.05l-13.7,77.66A2.33,2.33,0,0,1,760.43,752.63Zm-300.16-9.27L758.49,748l13.6-77.09a2.32,2.32,0,0,1,1.58-1.81L888,632.47c-4-21.39-45.58-210.62-248.54-219.26-51.69-2.2-91.58,2.07-129.4,13.85-24.09,7.5-43.86,26.87-57.16,56-26.78,58.65-22,141.27-1.84,187.26a2.45,2.45,0,0,1,.18.64Z" class="f03a64c8-d046-465d-9721-313d1be2a845"></path><path d="M681.38,427.9c.72,10.24-26.83,19.24-61.52,20.11s-63.45-6.71-64.17-16.94,26.82-19.24,61.55-20.11S680.65,417.67,681.38,427.9Z" class="f03a64c8-d046-465d-9721-313d1be2a845"></path><path d="M656.81,373.69s-6.1,28.48-1.4,41.83a6.58,6.58,0,0,1-3.46,8c-10.47,5.1-32.82,13.79-56.23,9.08a13.66,13.66,0,0,1-10.85-13c-.44-12-1.75-31.9-5.77-41.27Z" class="b3c0f27a-eaac-4b2e-85e5-a9628893f8c7"></path><path d="M609.71,436.27a73.64,73.64,0,0,1-14.45-1.4,15.93,15.93,0,0,1-12.72-15.18c-.4-11.18-1.66-31.3-5.58-40.44a2.32,2.32,0,0,1,2-3.23l77.71-4.65a2.27,2.27,0,0,1,1.91.81,2.34,2.34,0,0,1,.51,2c-.06.28-5.91,28-1.48,40.57A8.86,8.86,0,0,1,653,425.6C644,430,627.89,436.27,609.71,436.27Zm-27.36-55.8c3.16,10,4.38,26.4,4.84,39.06a11.29,11.29,0,0,0,9,10.78c22.49,4.53,44-3.62,54.76-8.89a4.26,4.26,0,0,0,2.29-5.13c-4-11.34-.71-32.3.73-40.1Z" class="f03a64c8-d046-465d-9721-313d1be2a845"></path><path d="M498.87,253h10.77a21.54,21.54,0,0,1,21.54,21.54v11.1a21.54,21.54,0,0,1-21.54,21.54H498.87a27.09,27.09,0,0,1-27.09-27.09v0A27.09,27.09,0,0,1,498.87,253Z" class="b3c0f27a-eaac-4b2e-85e5-a9628893f8c7"></path><path d="M531.18,309.48H497.59a28.17,28.17,0,0,1-28.13-28.14v-2.55a28.17,28.17,0,0,1,28.13-28.14h33.59A2.32,2.32,0,0,1,533.5,253v54.18A2.32,2.32,0,0,1,531.18,309.48ZM497.59,255.3a23.51,23.51,0,0,0-23.48,23.49v2.55a23.51,23.51,0,0,0,23.48,23.49h31.26V255.3Z" class="f03a64c8-d046-465d-9721-313d1be2a845"></path><path d="M502.61,287.77s-1.13-14-14.59-14" class="b3c0f27a-eaac-4b2e-85e5-a9628893f8c7"></path><path d="M502.61,290.09a2.33,2.33,0,0,1-2.32-2.12c0-.49-1.17-11.84-12.27-11.84a2.33,2.33,0,0,1,0-4.65c12.34,0,16.45,10.54,16.9,16.1a2.31,2.31,0,0,1-2.12,2.5Z" class="f03a64c8-d046-465d-9721-313d1be2a845"></path><path transform="translate(1189.12 578.58) rotate(180)" d="M592.25,172.34h4.61a90.78,90.78,0,0,1,90.78,90.78V334.8a71.44,71.44,0,0,1-71.44,71.44H572.92a71.44,71.44,0,0,1-71.44-71.44V263.12a90.78,90.78,0,0,1,90.78-90.78Z" class="b3c0f27a-eaac-4b2e-85e5-a9628893f8c7"></path><path d="M597.74,408.56h-6.36a92.34,92.34,0,0,1-92.23-92.23v-144a2.32,2.32,0,0,1,2.33-2.32H687.64a2.32,2.32,0,0,1,2.33,2.32v144A92.34,92.34,0,0,1,597.74,408.56ZM503.8,174.67V316.33a87.68,87.68,0,0,0,87.58,87.58h6.36a87.68,87.68,0,0,0,87.58-87.58V174.67Z" class="f03a64c8-d046-465d-9721-313d1be2a845"></path><path transform="translate(1434.68 593.48) rotate(180)" d="M711.42,269.65H747a0,0,0,0,1,0,0v54.18a0,0,0,0,1,0,0H711.42A23.78,23.78,0,0,1,687.64,300v-6.61A23.78,23.78,0,0,1,711.42,269.65Z" class="b3c0f27a-eaac-4b2e-85e5-a9628893f8c7"></path><path d="M721.23,326.15H687.64a2.32,2.32,0,0,1-2.32-2.32V269.65a2.32,2.32,0,0,1,2.32-2.32h33.59a28.17,28.17,0,0,1,28.14,28.14V298A28.17,28.17,0,0,1,721.23,326.15ZM690,321.51h31.26A23.52,23.52,0,0,0,744.72,298v-2.55A23.52,23.52,0,0,0,721.23,272H690Z" class="f03a64c8-d046-465d-9721-313d1be2a845"></path><path d="M687.64,304.79a2.29,2.29,0,0,1-1.58-.62,2.32,2.32,0,0,1-.13-3.28c15.83-17.08,32.36-6.79,32.53-6.68a2.32,2.32,0,0,1-2.51,3.91c-.59-.38-13.52-8.21-26.6,5.93A2.35,2.35,0,0,1,687.64,304.79Z" class="f03a64c8-d046-465d-9721-313d1be2a845"></path><path d="M471.86,166.4a47.16,47.16,0,0,1,46.2-56.68c.31,0,.6,0,.91,0,51.89-51.9,105.9-12.17,105.9-12.17,1.08-.08,2.15-.16,3.25-.16a45.25,45.25,0,0,1,34,15.35c15.91.35,29,10.39,31.47,23.5,21.75,6.16,35.3,27.64,35.3,49.34a41,41,0,0,1-.68,7.12l.68.29s12.61,12.92,12.61,32.1c0,18.77-5.68,49.53-5.68,49.53s-45.87-15.57-45.87,27.8l-12.64-2.7a13.48,13.48,0,0,1-10.67-12.5c-.44-9-1.64-22.73-4.93-35.52-1.77.16-3.57.24-5.39.24-27.78,0-52.09-10.86-54.11-34.92-9.57,11.7-23.51,15.87-41.11,15.87-16.76,0-31.61-11.61-41.27-22.36a32.61,32.61,0,1,1-48-44.18Z" class="f03a64c8-d046-465d-9721-313d1be2a845"></path><path d="M578.24,184c-11.17,0-22.09-2.49-29.61-10a2.32,2.32,0,1,1,3.29-3.28c19.56,19.57,68.62-.31,69.11-.51a2.33,2.33,0,0,1,1.78,4.3C621.41,175.06,599.39,184,578.24,184Z" class="b3c0f27a-eaac-4b2e-85e5-a9628893f8c7"></path><path d="M535.08,165.5a2.29,2.29,0,0,1-1.44-.5c-.38-.29-9.25-7.37-11.86-15a2.32,2.32,0,1,1,4.39-1.51c2.17,6.3,10.27,12.77,10.36,12.83a2.33,2.33,0,0,1,.37,3.27A2.31,2.31,0,0,1,535.08,165.5Z" class="b3c0f27a-eaac-4b2e-85e5-a9628893f8c7"></path><path d="M609,316.05a29.33,29.33,0,1,1,29.33-29.33A29.35,29.35,0,0,1,609,316.05Zm0-54a24.68,24.68,0,1,0,24.68,24.67A24.7,24.7,0,0,0,609,262.05Z" class="f03a64c8-d046-465d-9721-313d1be2a845"></path><path d="M529.61,312.94a29.33,29.33,0,1,1,29.32-29.32A29.36,29.36,0,0,1,529.61,312.94Zm0-54a24.68,24.68,0,1,0,24.67,24.68A24.71,24.71,0,0,0,529.61,258.94Z" class="f03a64c8-d046-465d-9721-313d1be2a845"></path><path d="M580.76,288.7c-.13-.08-14-8.51-23.61-.22l-3-3.51c12.16-10.55,28.42-.65,29.11-.22Z" class="f03a64c8-d046-465d-9721-313d1be2a845"></path><rect transform="translate(-56.24 303.36) rotate(-25.06)" height="4.65" width="40.34" y="275.86" x="634.1" class="f03a64c8-d046-465d-9721-313d1be2a845"></rect><path d="M916.31,349.21c-5.21,0-10-3.66-14.25-10.89-3.36-5.71-6.81-8.76-9.95-8.8-3.79-.14-7.41,4.67-8.68,6.71a32.12,32.12,0,0,1-7,8.28c-8.12,6.38-16.74,5.27-23.64-3-3.42-4.11-6.69-6.19-9.71-6.19h0c-3,0-5.38,2.09-6.84,3.84-3.24,3.89-6.41,6.42-9.68,7.72-4.68,1.86-11.71,2.58-18.58-4.6-2.72-2.84-5.51-4.18-8.26-3.9-5.31.49-9.38,6.51-9.41,6.57a2.33,2.33,0,0,1-3.9-2.54c.21-.33,5.28-8,12.88-8.66,4.2-.39,8.29,1.39,12,5.32,4.07,4.26,8.61,5.43,13.5,3.49,2.54-1,5.1-3.09,7.83-6.38,2.1-2.52,5.6-5.51,10.41-5.51h0c4.47,0,8.94,2.65,13.28,7.86,5.37,6.44,11,7.2,17.2,2.33a27.28,27.28,0,0,0,6-7.1c2.11-3.35,6.73-9,12.69-8.88,4.92.07,9.59,3.8,13.88,11.1,3.36,5.7,6.81,8.59,10.25,8.59h.07c5-.06,9.54-6.26,10.87-8.64a2.32,2.32,0,0,1,4.06,2.26c-.24.45-6.18,10.93-14.87,11Z" class="f03a64c8-d046-465d-9721-313d1be2a845"></path><path d="M916.31,380.66c-5.21,0-10-3.66-14.25-10.88-3.36-5.72-6.81-8.76-9.95-8.81H892c-4,0-7.33,4.69-8.6,6.71a32.1,32.1,0,0,1-7,8.28c-8.14,6.38-16.75,5.28-23.65-3-3.42-4.11-6.69-6.19-9.71-6.19h0c-3,0-5.38,2.09-6.84,3.84-3.24,3.9-6.41,6.42-9.68,7.72-4.68,1.86-11.71,2.59-18.58-4.59-2.72-2.85-5.51-4.2-8.26-3.91-5.31.49-9.38,6.51-9.41,6.57a2.33,2.33,0,0,1-3.9-2.54c.21-.33,5.28-8,12.88-8.66,4.2-.38,8.29,1.39,12,5.32,4.07,4.26,8.61,5.44,13.5,3.49,2.54-1,5.1-3.09,7.83-6.38,2.1-2.51,5.6-5.51,10.41-5.51h0c4.47,0,8.94,2.65,13.28,7.87,5.37,6.44,11,7.2,17.2,2.33a27.62,27.62,0,0,0,6-7.1c2.09-3.33,6.49-8.89,12.54-8.89h.15c4.92.08,9.59,3.81,13.88,11.1,3.36,5.7,6.81,8.6,10.25,8.6h.07c5-.06,9.53-6.26,10.87-8.65a2.33,2.33,0,0,1,4.06,2.27c-.24.44-6.18,10.92-14.87,11Z" class="f03a64c8-d046-465d-9721-313d1be2a845"></path><path d="M618.6,325.59a2.33,2.33,0,0,1-.51-4.6l21.6-4.84a2.33,2.33,0,1,1,1,4.54l-21.6,4.84A2.2,2.2,0,0,1,618.6,325.59Z" class="a474825b-97c2-4616-bdb9-6459db3f2319"></path><path d="M518.06,320.8a2.29,2.29,0,0,1-1.16-.31l-13.66-7.86a2.33,2.33,0,1,1,2.32-4l13.66,7.86a2.33,2.33,0,0,1-1.16,4.34Z" class="a474825b-97c2-4616-bdb9-6459db3f2319"></path><path d="M568.14,317a10,10,0,0,1-8.16-4.11,10.29,10.29,0,0,1-1-10.73,14.33,14.33,0,0,0,1.25-4.45,2.33,2.33,0,0,1,4.64.4,19.13,19.13,0,0,1-1.73,6.13,5.72,5.72,0,0,0,.56,5.9,5.28,5.28,0,0,0,5.15,2.18,2.46,2.46,0,0,1,2.81,1.88,2.21,2.21,0,0,1-1.73,2.65A11.24,11.24,0,0,1,568.14,317Z" class="a474825b-97c2-4616-bdb9-6459db3f2319"></path><path d="M350.87,241.23A29.67,29.67,0,0,1,337,237.79c-8.94-4.65-13.79-10.37-15.87-15.89-21.87-4.1-32.12-26.19-32.24-26.45a2.32,2.32,0,1,1,4.23-1.92c.43.92,8.84,18.94,26.83,23.39a17.63,17.63,0,0,1,.49-6.22c2.21-8.24,10.07-13.71,19.29-13.28,5.39.24,10.31,5.51,10.54,11.28.1,2.67-.82,11.53-16.93,13.52a39.49,39.49,0,0,1-6.8.29c2.13,3.85,6.1,7.77,12.6,11.15,23.95,12.43,48.95-20,49.2-20.34a2.32,2.32,0,1,1,3.7,2.81C391.15,217.35,372.76,241.22,350.87,241.23ZM324.8,217.74a36.56,36.56,0,0,0,8-.13c8.34-1,13-4.21,12.85-8.73-.13-3.37-3.09-6.68-6.1-6.82-7-.31-12.95,3.74-14.59,9.85A12.89,12.89,0,0,0,324.8,217.74Z" class="a474825b-97c2-4616-bdb9-6459db3f2319"></path><path d="M199.45,858.32s2.24,14.57,13,23.09" class="f03a64c8-d046-465d-9721-313d1be2a845"></path><path d="M212.46,883.73a2.32,2.32,0,0,1-1.45-.5c-11.35-9-13.76-23.92-13.86-24.56a2.32,2.32,0,0,1,1.94-2.64,2.35,2.35,0,0,1,2.66,1.93c0,.14,2.26,13.8,12.15,21.63a2.32,2.32,0,0,1-1.44,4.14Z" class="a474825b-97c2-4616-bdb9-6459db3f2319"></path><path d="M205.13,896.77a2.28,2.28,0,0,1-1.44-.51c-21.89-17.32-26.57-46.19-26.75-47.41a2.31,2.31,0,0,1,1.94-2.65,2.34,2.34,0,0,1,2.65,1.94c.05.28,4.61,28.31,25,44.48a2.33,2.33,0,0,1-1.44,4.15Z" class="a474825b-97c2-4616-bdb9-6459db3f2319"></path><path d="M939.25,763.92a2.06,2.06,0,0,1-.6-.08A2.31,2.31,0,0,1,937,761c4.4-16.41-6.3-31.16-6.41-31.31a2.32,2.32,0,1,1,3.73-2.77c.5.67,12.17,16.66,7.17,35.29A2.33,2.33,0,0,1,939.25,763.92Z" class="a474825b-97c2-4616-bdb9-6459db3f2319"></path><path d="M956,770.18a2.46,2.46,0,0,1-.88-.17,2.33,2.33,0,0,1-1.27-3c13.44-32.84-13.11-51.76-13.38-52a2.33,2.33,0,0,1,2.66-3.82c.3.21,29.86,21.28,15,57.53A2.32,2.32,0,0,1,956,770.18Z" class="a474825b-97c2-4616-bdb9-6459db3f2319"></path><path d="M816.23,174.57s51.14-73.54,74.39-45.64c15.24,18.29-7.42,20.28-18.59,21.85a122.64,122.64,0,0,0-19.77,4.37C841.28,158.6,826.59,164.69,816.23,174.57Z" class="b3c0f27a-eaac-4b2e-85e5-a9628893f8c7"></path><path d="M816.23,176.9a2.32,2.32,0,0,1-1.91-3.66c1.47-2.11,36.31-51.79,62.44-52.93a18.58,18.58,0,0,1,15.64,7.13c5,6.05,6.69,11,5.05,15.26-2.86,7.37-14.7,9-23.34,10.14l-1.75.24a119.48,119.48,0,0,0-19.4,4.29c-10.43,3.28-25,9.21-35.13,18.88A2.32,2.32,0,0,1,816.23,176.9Zm61.47-52H877c-16.05.7-37,23.3-49.06,38.16a119.52,119.52,0,0,1,23.66-10.18,124.27,124.27,0,0,1,20.15-4.45l1.78-.25c6.64-.89,17.75-2.4,19.63-7.22,1.19-3.07-1.68-7.45-4.29-10.59A13.9,13.9,0,0,0,877.7,124.94Z" class="f03a64c8-d046-465d-9721-313d1be2a845"></path><ellipse transform="translate(530.78 1019.03) rotate(-82.27)" ry="23.25" rx="6.97" cy="205.65" cx="848.77" class="b3c0f27a-eaac-4b2e-85e5-a9628893f8c7"></ellipse><path d="M857.41,215.56a75.18,75.18,0,0,1-9.89-.69c-12.2-1.66-24.94-6.33-24.08-12.66.4-3,3.55-5,9.34-6a62.26,62.26,0,0,1,17.25.18c12.2,1.66,24.94,6.33,24.08,12.66h0c-.41,3-3.55,5-9.35,5.95A47.22,47.22,0,0,1,857.41,215.56Zm-17.19-15.18c-7.64,0-11.8,1.57-12.18,2.49.18,1.25,6.63,5.56,20.11,7.39s20.71-.56,21.35-1.8c-.29-1.36-6.74-5.6-20.1-7.42A68.73,68.73,0,0,0,840.22,200.38Z" class="f03a64c8-d046-465d-9721-313d1be2a845"></path><path d="M537.26,287.67a2.32,2.32,0,0,1-.46,0L513.55,283a2.33,2.33,0,0,1-1.83-2.74,2.36,2.36,0,0,1,2.74-1.82l23.25,4.65a2.32,2.32,0,0,1-.45,4.6Z" class="a474825b-97c2-4616-bdb9-6459db3f2319"></path><path d="M597.69,287.67a2.32,2.32,0,0,1-.45-4.6l23.25-4.65a2.32,2.32,0,0,1,.91,4.56l-23.25,4.65A2.32,2.32,0,0,1,597.69,287.67Z" class="a474825b-97c2-4616-bdb9-6459db3f2319"></path><path d="M514,280.7l-4.65,74.39s13.94,27.9,32.54,37.2l-4.65-106.94Z" class="b3c0f27a-eaac-4b2e-85e5-a9628893f8c7"></path><path d="M544.39,396.13l-3.53-1.76c-19.07-9.54-33-37.07-33.59-38.24l-.28-.56,4.86-77.67,27.64,5.53Zm-32.67-41.54c1.89,3.61,13.09,24.11,27.67,33.58L535,287.27l-18.85-3.77Z" class="f03a64c8-d046-465d-9721-313d1be2a845"></path><path d="M621,280.7l18.59,116.24s-23.24,9.3-46.49,9.3l4.65-120.08Z" class="b3c0f27a-eaac-4b2e-85e5-a9628893f8c7"></path><path d="M593.05,408.56h-2.42l4.81-124.26,27.41-6.43,19.28,120.54-1.73.69C639.44,399.48,616.47,408.56,593.05,408.56ZM600,288l-4.48,115.86c18.12-.51,36-6.45,41.47-8.45L619,283.53Z" class="f03a64c8-d046-465d-9721-313d1be2a845"></path><path d="M551.2,352.77a2.33,2.33,0,0,1-1.39-4.19c.19-.15,20.37-15,35.58.22a2.33,2.33,0,0,1-3.29,3.29c-12.38-12.39-29.34.09-29.51.21A2.24,2.24,0,0,1,551.2,352.77Z" class="a474825b-97c2-4616-bdb9-6459db3f2319"></path><path d="M541.9,241.18H518.65a2.33,2.33,0,0,1,0-4.65H541.9a2.33,2.33,0,1,1,0,4.65Z" class="f03a64c8-d046-465d-9721-313d1be2a845"></path><path d="M620.94,241.18H597.7a2.33,2.33,0,1,1,0-4.65h23.24a2.33,2.33,0,1,1,0,4.65Z" class="f03a64c8-d046-465d-9721-313d1be2a845"></path><polygon points="276.88 568.97 402.42 545.72 741.83 555.02 532.6 582.92 276.88 568.97" class="fdab315e-de6e-4c1a-a0e3-0d768241b707"></polygon><path d="M532.91,585.22,276.75,571.29a2.32,2.32,0,0,1-.3-4.6L402,543.44a2.07,2.07,0,0,1,.49,0l339.42,9.3a2.33,2.33,0,0,1,.24,4.63ZM296.45,567.71,532.73,580.6,712.8,556.55l-310.2-8.49Z" class="f03a64c8-d046-465d-9721-313d1be2a845"></path><polygon points="765.08 871.19 551.2 940.94 532.6 578.27 746.48 555.02 765.08 871.19" class="f03a64c8-d046-465d-9721-313d1be2a845"></polygon><path d="M779,443.43c-10.26-6.13-25.25-9.93-37.2-10.36-18.05-.65-42.51,11-55.79,42.91-14.44,34.65,32.29,156.22,49.6,198.92a17.4,17.4,0,0,0,21.47,10l127.25-41.17a17.42,17.42,0,0,0,11.33-21.45C885,585.3,855.85,489.4,779,443.43Z" class="f03a64c8-d046-465d-9721-313d1be2a845"></path><polygon points="546.59 519.09 560.5 592.22 672.09 568.97 652.33 499.92 546.59 519.09" class="b3c0f27a-eaac-4b2e-85e5-a9628893f8c7"></polygon><path d="M560.5,594.54a2.3,2.3,0,0,1-1.29-.39,2.26,2.26,0,0,1-1-1.5l-13.91-73.13a2.37,2.37,0,0,1,.37-1.75,2.32,2.32,0,0,1,1.5-1l105.74-19.17a2.34,2.34,0,0,1,2.65,1.65l19.75,69.05a2.32,2.32,0,0,1-1.76,2.92L561,594.49A1.83,1.83,0,0,1,560.5,594.54ZM549.32,521l13,68.5,106.82-22.25-18.48-64.63Z" class="f03a64c8-d046-465d-9721-313d1be2a845"></path><path d="M383.82,507.71V480.39a1.83,1.83,0,0,1,3.12-1.29l9.9,9.9a1.82,1.82,0,0,0,2.1.34l15.54-7.77a1.83,1.83,0,0,1,2.55,1.06l3.37,10.11a1.83,1.83,0,0,0,2.41,1.12l20.08-8a1.81,1.81,0,0,1,2.19.68L452.74,498a1.83,1.83,0,0,0,2.2.69l20.07-8a1.82,1.82,0,0,1,2.41,1.12L480.85,502a1.82,1.82,0,0,0,2.41,1.12l19.5-7.8a1.82,1.82,0,0,1,2.45,1.25l3.67,14.65a1.82,1.82,0,0,0,2.35,1.29l20.47-6.82a1.83,1.83,0,0,1,2,2.83L523.67,522a1.79,1.79,0,0,0-.37,1.09c0,5.21-.32,43.2-4.64,69.14-4.39,26.31-137,3-152,.26a1.81,1.81,0,0,1-1.48-1.69c-.51-9.54-2.48-64.19,18.06-81.74A1.75,1.75,0,0,0,383.82,507.71Z" class="b3c0f27a-eaac-4b2e-85e5-a9628893f8c7"></path><path d="M476.34,606.94c-40.27,0-95.63-9.54-110.14-12.18a4.11,4.11,0,0,1-3.38-3.84c-.59-10.75-2.39-65.15,18.67-83.48V480.39a4.15,4.15,0,0,1,7.09-2.93l9.64,9.64,15.22-7.61a4.16,4.16,0,0,1,5.8,2.4l3.2,9.61L442,483.67a4.18,4.18,0,0,1,5,1.55l7.43,11.15,19.7-7.88a4.15,4.15,0,0,1,5.48,2.55l3.25,9.76,19-7.6a4.15,4.15,0,0,1,5.57,2.85L511,510.18l20-6.66A4.15,4.15,0,0,1,535.6,510l-10.07,13.43c.07,6.81-.31,43.55-4.58,69.22a11.4,11.4,0,0,1-5.09,7.48C508.7,605.11,494,606.94,476.34,606.94Zm-108.9-16.68c45.77,8.29,127.57,18.81,145.75,6a6.84,6.84,0,0,0,3.17-4.43c4.31-25.86,4.6-64.46,4.62-68.77a4.06,4.06,0,0,1,.83-2.47l9.12-12.16-19,6.32a4.15,4.15,0,0,1-5.34-2.93l-3.52-14.1-19,7.59a4.16,4.16,0,0,1-5.48-2.54L475.38,493l-19.58,7.84a4.18,4.18,0,0,1-5-1.55l-7.44-11.15L423.68,496a4.15,4.15,0,0,1-5.48-2.54L415,483.91l-15,7.51a4.19,4.19,0,0,1-4.8-.77l-9.05-9.06v26.12a4.08,4.08,0,0,1-1.43,3.1C365.06,527.6,367,582.22,367.44,590.26Zm0,.41h0Z" class="f03a64c8-d046-465d-9721-313d1be2a845"></path><polygon points="276.88 568.97 295.48 903.74 551.2 940.94 532.6 578.27 276.88 568.97" class="f03a64c8-d046-465d-9721-313d1be2a845"></polygon><path d="M309.42,569S249,499.23,281.53,443.43s55.79-9.3,65.09,27.9,23.25,93,32.55,102.29Z" class="b3c0f27a-eaac-4b2e-85e5-a9628893f8c7"></path><path d="M379.17,576H379l-69.74-4.65a2.33,2.33,0,0,1-1.6-.79c-.62-.72-61.16-71.66-28.15-128.24,11.3-19.37,22.68-28.39,33.78-26.81,20.35,2.91,31.66,39.65,35.58,55.32C357.51,505.31,372,563.13,380.81,572a2.33,2.33,0,0,1-1.64,4Zm-68.6-9.23L374.42,571c-8.53-14.77-19.09-55.22-30.06-99.08-5.93-23.71-17.37-49.79-31.72-51.83-9-1.31-18.85,7-29.11,24.55C254,495.31,304.36,559.18,310.57,566.72Z" class="f03a64c8-d046-465d-9721-313d1be2a845"></path><path d="M332.67,473.66a2.37,2.37,0,0,1-1.29-.39c-13-8.65-35.22-4.36-35.45-4.31a2.32,2.32,0,0,1-2.74-1.82A2.34,2.34,0,0,1,295,464.4c1-.2,24.36-4.72,38.94,5a2.32,2.32,0,0,1-1.29,4.26Z" class="f03a64c8-d046-465d-9721-313d1be2a845"></path><path d="M337.32,501.55a2.43,2.43,0,0,1-1-.24c-17.41-8.71-39.72,0-39.94.08a2.33,2.33,0,0,1-1.73-4.32c1-.39,24.44-9.58,43.75.08a2.32,2.32,0,0,1-1,4.4Z" class="f03a64c8-d046-465d-9721-313d1be2a845"></path><path d="M342,529.45a2.16,2.16,0,0,1-.86-.17c-21.72-8.68-34.52-.57-35.06-.21a2.33,2.33,0,0,1-2.57-3.88c.61-.41,15.26-9.86,39.35-.22a2.32,2.32,0,0,1-.86,4.48Z" class="f03a64c8-d046-465d-9721-313d1be2a845"></path><path d="M323.37,557.35a2.33,2.33,0,0,1-1-4.41c.81-.4,20-9.78,34.88.15a2.33,2.33,0,0,1-2.58,3.87c-12.67-8.45-30,0-30.22.14A2.28,2.28,0,0,1,323.37,557.35Z" class="f03a64c8-d046-465d-9721-313d1be2a845"></path><ellipse transform="matrix(0.98, -0.18, 0.18, 0.98, -81.3, 115.15)" ry="11.62" rx="53.73" cy="509.5" cx="599.46" class="f03a64c8-d046-465d-9721-313d1be2a845"></ellipse><path d="M567.15,526.75c-1.27,0-2.5,0-3.68-.06-12.09-.4-18.36-2.75-19.16-7.19s4.23-8.82,15.41-13.45c9.74-4,23-7.68,37.25-10.27s28-3.84,38.49-3.47c12.09.41,18.36,2.76,19.16,7.19h0c2,10.86-33.59,20.27-52.67,23.73A202.1,202.1,0,0,1,567.15,526.75Zm64.61-29.85a197.64,197.64,0,0,0-34,3.45c-14,2.54-26.85,6.08-36.3,10-10.91,4.52-12.73,7.73-12.62,8.34s2.94,3,14.74,3.37c10.22.33,23.54-.86,37.5-3.4,32.73-5.93,49.49-15.21,48.92-18.32h0c-.1-.61-2.93-3-14.74-3.37Q633.59,496.9,631.76,496.9Z" class="f03a64c8-d046-465d-9721-313d1be2a845"></path><polygon points="532.6 578.27 276.88 568.97 174.59 731.71 439.61 759.6 532.6 578.27" class="b3c0f27a-eaac-4b2e-85e5-a9628893f8c7"></polygon><path d="M439.61,761.93l-.24,0L174.34,734a2.32,2.32,0,0,1-1.84-1.3,2.29,2.29,0,0,1,.12-2.25L274.91,567.73a2.11,2.11,0,0,1,2-1.08L532.69,576a2.32,2.32,0,0,1,2,3.38l-93,181.33A2.31,2.31,0,0,1,439.61,761.93ZM178.54,729.79l259.73,27.33,90.6-176.66-250.74-9.12Z" class="f03a64c8-d046-465d-9721-313d1be2a845"></path><path d="M779,652.66l88.34-32.54s5,10,11.56,25.39l5.43-1.76a17.42,17.42,0,0,0,11.33-21.45C885,585.3,855.85,489.4,779,443.43c-10.26-6.13-25.25-9.93-37.2-10.36-18.05-.65-42.51,11-55.79,42.91-14.44,34.65,32.29,156.22,49.6,198.92a17.4,17.4,0,0,0,21.47,10l28.25-9.14c-1.06-3.13-2.12-6.28-3.21-9.58Z" class="f03a64c8-d046-465d-9721-313d1be2a845"></path><path d="M507.35,903.94c1.24-.11,2-.2,2-.2A9.82,9.82,0,0,0,507.35,903.94Z" class="b3c0f27a-eaac-4b2e-85e5-a9628893f8c7"></path><path d="M507.35,906.27a2.33,2.33,0,0,1-.45-4.61,12.55,12.55,0,0,1,2.45-.24,2.32,2.32,0,0,1,.29,4.63l-2.08.21Z" class="f03a64c8-d046-465d-9721-313d1be2a845"></path><path d="M619.33,792.52c-1.56,0-3.11-.06-4.65-.16-30.54-2-56.46-22.42-69.74-9.14-14,13.95,13.95,27.89,13.95,27.89s-29.68,4.95-38.53,32.88c-7.75,24.47,12,49.07,37.61,47.28,87.74-6.14,268.73-73,317.09-101.26,41.79-24.38,7.93-119.19-11.69-165.24L769.8,655c9.51,28.09,10.56,40.71,21.57,71.09Z" class="b3c0f27a-eaac-4b2e-85e5-a9628893f8c7"></path><path d="M555.4,893.69a39.14,39.14,0,0,1-30.73-15,38,38,0,0,1-6.53-35.43c6.86-21.63,25.29-30.06,34.71-33-5.22-3.42-12.8-9.53-14-16.81-.69-4.26.8-8.25,4.43-11.88,8.93-8.93,22.38-4.52,38,.6,10.11,3.32,21.57,7.09,33.59,7.87,1.34.09,2.7.14,4.06.15l169.51-65.41c-5.54-15.56-8.53-26.64-11.42-37.37-2.51-9.32-5.11-19-9.39-31.63a2.31,2.31,0,0,1,1.48-2.95l93.57-30.27a2.3,2.3,0,0,1,2.85,1.29C887.74,676,918.7,767.24,876.23,792c-49.55,28.9-231.89,95.53-318.1,101.57C557.22,893.65,556.31,893.69,555.4,893.69Zm1.38-112.6c-4,0-7.48,1.06-10.19,3.77-2.55,2.55-3.57,5.11-3.13,7.84,1.17,7.21,12.29,14.24,16.47,16.33a2.33,2.33,0,0,1-.65,4.38c-.29.05-28.4,5.09-36.7,31.28a33.41,33.41,0,0,0,5.74,31.16A34.59,34.59,0,0,0,557.81,889c85.63-6,266.82-72.22,316.08-101,40.22-23.46,5.86-118.42-11.83-160.37l-89.31,28.9c3.89,11.71,6.35,20.83,8.73,29.67,3.13,11.63,6.09,22.63,12.07,39.14a2.31,2.31,0,0,1-1.34,3l-172,66.38a2.15,2.15,0,0,1-.83.16c-1.62,0-3.22-.06-4.8-.16-12.61-.82-24.37-4.68-34.74-8.09C570.87,783.65,563.07,781.09,556.78,781.09Z" class="f03a64c8-d046-465d-9721-313d1be2a845"></path><path d="M886,643.36s-69.74,27.9-97.64,32.55-41.85-46.49-41.85-46.49l111.59-27.9Z" class="f03a64c8-d046-465d-9721-313d1be2a845"></path><polygon points="532.6 578.27 746.48 555.02 825.53 694.51 583.75 750.3 532.6 578.27" class="b3c0f27a-eaac-4b2e-85e5-a9628893f8c7"></polygon><path d="M583.75,752.63a2.33,2.33,0,0,1-2.23-1.66l-51.15-172a2.36,2.36,0,0,1,.3-1.95,2.32,2.32,0,0,1,1.68-1l213.88-23.25a2.29,2.29,0,0,1,2.27,1.17l79,139.48a2.3,2.3,0,0,1,.11,2.09,2.33,2.33,0,0,1-1.6,1.33L584.27,752.57A2.37,2.37,0,0,1,583.75,752.63ZM535.63,580.28l49.72,167.27L822,693,745.21,557.5Z" class="f03a64c8-d046-465d-9721-313d1be2a845"></path><path d="M490.76,215.61s0,23.24,4.65,37.19c0,0,0-4.65,4.65,0V211Z" class="f03a64c8-d046-465d-9721-313d1be2a845"></path><path d="M337.32,844c0,23.25-18.6,37.19-37.19,37.19-30.88,0-74.4-9.3-74.4-46.49,0-60.62,68.62-69,88.34-55.8,13.95,9.3,4.65,23.25-13.94,23.25C300.13,802.16,337.32,813.86,337.32,844Z" class="b3c0f27a-eaac-4b2e-85e5-a9628893f8c7"></path><path d="M300.12,883.53c-37.08,0-76.71-12.83-76.71-48.82,0-31.16,17.17-46.89,31.57-54.6,21.6-11.55,48.65-11,60.38-3.13,6.3,4.2,8.95,9.78,7.27,15.31-1.57,5.21-6.64,9.2-13.51,11.05,11.43,5.52,30.53,18.11,30.53,40.67C339.65,868.75,319.55,883.53,300.12,883.53Zm-9-107.63a73.8,73.8,0,0,0-34,8.31c-13.29,7.11-29.12,21.64-29.12,50.5,0,41,55.16,44.17,72.06,44.17,17.14,0,34.88-13,34.88-34.87,0-28.12-35.22-39.52-35.58-39.63a2.33,2.33,0,0,1,.7-4.54c10.56,0,16.77-4.61,18.06-8.89,1.06-3.49-.86-7.08-5.4-10.1C308.05,777.69,300.18,775.9,291.16,775.9Z" class="f03a64c8-d046-465d-9721-313d1be2a845"></path><path d="M305.39,336.49H190.76c-10,0-15.5-12.43-8.13-19.16a13.88,13.88,0,0,1,1.65-1.29s10.23-23.86,34.09-3.41c0,0,2.71-31.93,27.27-30.68,17,.87,23.86,20.46,23.86,20.46s16.68-3.11,16.68,10.84c0,0,6.74-8.52,23.24-3.33C324.26,314.59,320.94,336.49,305.39,336.49Z" class="b3c0f27a-eaac-4b2e-85e5-a9628893f8c7"></path><path d="M305.39,338.82H190.76a13.82,13.82,0,0,1-12.91-9,12.67,12.67,0,0,1,3.22-14.25,15.79,15.79,0,0,1,1.37-1.12c1.15-2.3,5.55-10,14.05-12,6.2-1.44,12.94.51,20.13,5.79,2.23-12.17,10.31-29.55,29.14-28.64,15.41.79,23,15.14,25.23,20.25,3.05-.25,9.09-.22,13.25,3.23a11.32,11.32,0,0,1,3.69,5.75c3.88-2.34,11.05-4.67,22.19-1.16,9,2.84,12,10.91,11,17.64S314.81,338.82,305.39,338.82ZM200.5,306.67a13.23,13.23,0,0,0-3,.33c-7.53,1.76-11.09,9.87-11.12,10a2.4,2.4,0,0,1-.85,1A11.55,11.55,0,0,0,184.2,319a8,8,0,0,0-2,9.14,9.18,9.18,0,0,0,8.57,6H305.39c7.12,0,10.43-5.14,11.11-9.54a11,11,0,0,0-7.78-12.49c-14.59-4.6-20.49,2.28-20.74,2.57a2.36,2.36,0,0,1-2.59.71,2.31,2.31,0,0,1-1.54-2.17c0-3-.84-5.11-2.57-6.56-4-3.3-11.28-2-11.36-2a2.33,2.33,0,0,1-2.61-1.52c-.06-.18-6.56-18.12-21.79-18.9-22-1.25-24.73,27.35-24.83,28.56a2.32,2.32,0,0,1-3.83,1.56C210.87,309.26,205.38,306.67,200.5,306.67Z" class="f03a64c8-d046-465d-9721-313d1be2a845"></path><path d="M393.12,508.53s4.65,9.3,9.3,9.3,23.24-4.65,23.24-4.65,0,9.3,23.25,9.3h27.9c9.3,0,23.25,9.3,27.9,9.3" class="b3c0f27a-eaac-4b2e-85e5-a9628893f8c7"></path><path d="M504.7,534.1c-2.42,0-6-1.62-10.53-3.67-5.53-2.51-12.42-5.63-17.36-5.63h-27.9c-17.81,0-23.23-5.36-24.86-8.83-5.24,1.27-17.66,4.18-21.64,4.18-5.79,0-10.49-8.82-11.37-10.58a2.32,2.32,0,1,1,4.15-2.08c1.69,3.36,5.14,8,7.22,8,3.58,0,17.59-3.3,22.69-4.58a2.3,2.3,0,0,1,2,.42,2.34,2.34,0,0,1,.9,1.84h0s.84,7,20.92,7h27.9c5.95,0,13.34,3.35,19.28,6,3.37,1.53,7.19,3.26,8.61,3.26a2.33,2.33,0,1,1,0,4.65Z" class="f03a64c8-d046-465d-9721-313d1be2a845"></path><path d="M239.68,701.48a2.27,2.27,0,0,1-1.64-.68,2.31,2.31,0,0,1,0-3.28l67.43-67.43a9.57,9.57,0,0,1,16.19,8.43l-6.5,36.88a4.93,4.93,0,0,0,8,4.64L391.63,623a2.32,2.32,0,0,1,3,3.57l-68.46,57.06a9.57,9.57,0,0,1-15.56-9l6.51-36.88a4.93,4.93,0,0,0-8.33-4.34L241.32,700.8A2.28,2.28,0,0,1,239.68,701.48Z" class="f03a64c8-d046-465d-9721-313d1be2a845"></path><path d="M397.76,720.08a2.32,2.32,0,0,1-2.1-3.32l41.85-88.34a2.32,2.32,0,0,1,4.2,2l-41.84,88.34A2.34,2.34,0,0,1,397.76,720.08Z" class="f03a64c8-d046-465d-9721-313d1be2a845"></path><path d="M631.85,675.48h-.69a16.17,16.17,0,0,1-15-11.27l-16-48a2.32,2.32,0,1,1,4.41-1.47l16,48a11.84,11.84,0,0,0,22.15.85l14-33.3a16.5,16.5,0,0,1,27.36-4.75L720.3,665a2.33,2.33,0,1,1-3.43,3.14l-36.21-39.51A11.85,11.85,0,0,0,661,632.08l-14,33.31A16.14,16.14,0,0,1,631.85,675.48Z" class="f03a64c8-d046-465d-9721-313d1be2a845"></path><path d="M765.08,659.64a2.31,2.31,0,0,1-1.8-.86l-41.84-51.14A2.32,2.32,0,1,1,725,604.7l41.85,51.14a2.32,2.32,0,0,1-.33,3.27A2.27,2.27,0,0,1,765.08,659.64Z" class="f03a64c8-d046-465d-9721-313d1be2a845"></path></svg>