<?xml version="1.0" standalone="no"?><!DOCTYPE svg PUBLIC "-//W3C//DTD SVG 1.1//EN" "http://www.w3.org/Graphics/SVG/1.1/DTD/svg11.dtd"><svg t="1677909293561" class="icon" viewBox="0 0 1024 1024" version="1.1" xmlns="http://www.w3.org/2000/svg" p-id="4616" xmlns:xlink="http://www.w3.org/1999/xlink" width="128" height="128"><path d="M216.618667 341.376l2.176 0.085333 2.218666 0.128 2.133334 0.170667 2.133333 0.256 2.133333 0.298667 2.090667 0.384 2.090667 0.384 2.048 0.426666 2.048 0.512 2.090666 0.554667 2.005334 0.597333 1.962666 0.64 1.962667 0.682667 1.962667 0.725333 1.92 0.810667 1.877333 0.853333 1.877333 0.853334 1.877334 0.896 1.834666 0.938666 1.792 1.066667 1.749334 1.024 1.792 1.109333 1.706666 1.109334 1.664 1.194666 1.706667 1.152 1.578667 1.28 1.621333 1.28 1.536 1.28 1.536 1.408 1.493333 1.365334 1.450667 1.450666 1.450667 1.450667 1.408 1.450667 1.365333 1.578666 1.28 1.536 1.28 1.621334 1.28 1.621333 1.237333 1.621333 1.152 1.706667 1.109334 1.706667 1.109333 1.706666 1.024 1.792 1.024 1.792 0.938667 1.834667 0.981333 1.834667 0.853333 1.877333 0.853334 1.92 0.768 1.92 0.725333 1.962667 0.682667 1.962666 0.682666 1.962667 0.597334 2.048 0.554666 2.005333 0.469334 2.048 0.469333 2.090667 0.426667 2.090667 0.298666 2.090666 0.298667 2.133334 0.298667 2.133333 0.213333 2.133333 0.128 2.176 0.085333 2.176v2.218667l0.64 341.333333v2.133334l-0.085333 2.133333-0.128 2.133333-0.170667 2.048-0.213333 2.133334-0.298667 2.048-0.384 2.048-0.384 2.048-0.426666 2.090666-0.426667 2.048-0.554667 2.005334-0.597333 2.005333-0.597333 1.962667-0.682667 2.005333-0.725333 1.962667-0.768 1.877333-0.853334 1.962667-0.853333 1.877333-0.853333 1.877333-1.024 1.877334-0.981334 1.792-1.066666 1.834666-1.066667 1.792-1.152 1.706667-1.152 1.792-1.28 1.706667-1.237333 1.621333-1.28 1.664-1.365334 1.621333-1.408 1.578667-1.408 1.536-1.536 1.536-1.493333 1.450667-1.536 1.493333-1.578667 1.365333-1.621333 1.365334-1.664 1.28-1.664 1.322666-1.706667 1.237334-1.706666 1.194666-1.749334 1.109334-1.792 1.109333-1.792 1.066667-1.834666 0.981333-1.834667 0.938667-1.92 0.938666-1.877333 0.853334-1.92 0.853333-1.92 0.768-1.962667 0.725333-1.962667 0.64-2.005333 0.64-1.962667 0.597334-2.048 0.512-2.048 0.512-2.005333 0.426666-2.048 0.384-2.133333 0.341334-2.048 0.298666-2.133334 0.213334-2.048 0.170666-2.133333 0.170667L217.173333 853.333333h-5.290666l-2.133334-0.085333-2.176-0.170667-2.176-0.213333-2.133333-0.213333-2.133333-0.298667-2.133334-0.341333-2.090666-0.426667-2.048-0.426667-2.048-0.512-2.005334-0.554666-2.048-0.554667-2.005333-0.682667-1.962667-0.682666-1.92-0.768-1.962666-0.768-1.877334-0.853334-1.877333-0.853333-1.834667-0.896-1.834666-0.981333-1.834667-0.981334-1.706667-1.066666-1.749333-1.066667-1.706667-1.152-1.706666-1.152-1.664-1.237333-1.621334-1.194667-1.621333-1.322667-1.536-1.28-1.578667-1.365333-1.493333-1.408-1.450667-1.408-1.408-1.450667-1.408-1.536-1.365333-1.536-1.28-1.536-1.28-1.578666-1.28-1.621334-1.194667-1.706666-1.194666-1.706667-1.109334-1.706667-1.109333-1.706666-1.066667-1.792-0.981333-1.749334-0.981333-1.834666-0.896-1.877334-0.896-1.834666-0.853334-1.92-0.768-1.92-0.768-1.962667-0.682666-1.92-0.64-2.048-0.597334-2.005333-0.554666-2.005334-0.512-2.090666-0.469334-2.048-0.384-2.133334-0.341333-2.048-0.298667-2.133333-0.256-2.133333-0.213333-2.133334-0.128-2.218666-0.085333-2.133334-0.042667-2.261333-0.597333-341.333333v-2.133334l0.085333-2.048 0.128-2.133333 0.170667-2.090667 0.256-2.090666 0.256-2.133334 0.341333-2.005333 0.384-2.090667 0.426667-2.048 0.469333-2.005333 0.554667-2.048 0.554666-2.005333 0.64-1.962667 0.64-2.005333 0.725334-1.92 0.810666-1.962667 0.810667-1.877333 0.853333-1.92 0.938667-1.877334 0.938667-1.834666 0.981333-1.877334 1.066667-1.792 1.066666-1.749333 1.194667-1.792 1.152-1.706667 1.237333-1.706666 1.28-1.706667 1.28-1.621333 1.365334-1.621334 1.408-1.578666 1.450666-1.536 1.450667-1.493334 1.536-1.536 1.536-1.408 1.621333-1.450666 1.578667-1.322667 1.621333-1.28 1.706667-1.28 1.706667-1.28 1.706666-1.152 1.706667-1.152 1.834667-1.109333 1.792-1.024 1.792-1.024 1.92-0.938667 1.834666-0.938667 1.877334-0.853333 1.92-0.853333 1.962666-0.725334 1.962667-0.768 1.962667-0.682666 1.962666-0.64 2.048-0.554667 2.005334-0.554667 2.005333-0.426666 2.048-0.469334 2.090667-0.426666 2.048-0.298667 2.048-0.298667 2.133333-0.213333 2.090667-0.170667 2.133333-0.128 2.133333-0.085333L213.461333 341.333333h0.938667l2.176 0.042667zM213.76 384h-1.365333l-1.024 0.042667-1.066667 0.042666-1.024 0.128-1.066667 0.128-1.024 0.128-1.024 0.170667-1.024 0.170667-1.066666 0.256-1.024 0.213333-0.981334 0.298667-0.981333 0.256-1.024 0.341333-0.981333 0.341333-0.938667 0.341334-0.981333 0.426666-0.981334 0.384-0.938666 0.426667-0.938667 0.469333-0.938667 0.469334-0.896 0.512-0.896 0.554666-0.896 0.554667-0.853333 0.554667-0.853333 0.554666-0.853334 0.597334-0.853333 0.64-0.853333 0.682666-0.810667 0.682667-0.768 0.682667-0.768 0.725333-0.768 0.768-0.725333 0.725333-0.725334 0.810667-0.725333 0.810667-0.682667 0.768-0.64 0.853333-0.64 0.853333-0.597333 0.810667-0.597333 0.853333-0.554667 0.853334-0.554667 0.938666-0.512 0.896-0.512 0.938667-0.469333 0.853333-0.469333 0.981334-0.426667 0.938666-0.426667 0.981334-0.341333 0.938666-0.426667 0.981334-0.341333 0.981333-0.298667 1.024-0.298666 0.981333-0.256 1.024-0.213334 1.024-0.213333 0.981334-0.213333 1.024-0.170667 1.066666-0.128 1.066667-0.128 1.024-0.085333 1.066667v1.024l-0.085334 1.066666v1.322667l0.597334 340.821333v1.365334l0.042666 1.109333 0.085334 1.066667 0.085333 1.109333 0.128 1.066667 0.170667 1.066666 0.170666 1.066667 0.213334 1.024 0.213333 1.024 0.256 1.024 0.256 1.024 0.298667 0.981333 0.384 1.024 0.341333 0.938667 0.341333 0.981333 0.384 0.938667 0.426667 0.981333 0.426667 0.853334 0.426666 0.981333 0.512 0.853333 0.512 0.938667 0.512 0.853333 0.554667 0.853334 0.554667 0.896 0.597333 0.853333 0.597333 0.853333 0.597334 0.810667 0.64 0.768 0.725333 0.810667 0.682667 0.725333 0.682666 0.768 0.725334 0.768 0.725333 0.682667 0.768 0.725333 0.768 0.682667 0.768 0.682666 0.853333 0.64 0.768 0.597334 0.853334 0.597333 0.853333 0.597333 0.853333 0.554667 0.853334 0.554667 0.896 0.512 0.896 0.512 0.896 0.469333 0.896 0.426667 0.938666 0.426666 0.981334 0.469334 0.938666 0.426666 0.981334 0.341334 0.981333 0.341333 0.981333 0.341333 0.981334 0.256 1.024 0.298667 0.981333 0.213333 1.066667 0.256 1.024 0.170667 1.066666 0.170667 1.066667 0.170666 1.066667 0.085334 1.066666 0.128 1.109334 0.042666 1.109333 0.042667 1.408 0.042667h2.773333l1.024-0.128 1.066667-0.085334 1.024-0.085333 1.066667-0.170667 1.024-0.170666 1.024-0.170667 1.024-0.256 1.024-0.256 0.981333-0.213333 1.024-0.341334 1.024-0.298666 0.981333-0.298667 0.981334-0.426667 0.938666-0.341333 0.981334-0.426667 0.938666-0.426666 0.896-0.426667 0.938667-0.512 0.896-0.512 0.938667-0.512 0.853333-0.554667 0.938667-0.597333 0.853333-0.597333 0.810667-0.597334 0.853333-0.64 0.853333-0.64 0.768-0.682666 0.768-0.682667 0.810667-0.768 0.768-0.682667 0.725333-0.810666 0.725334-0.725334 0.682666-0.810666 0.682667-0.853334 0.64-0.768 0.64-0.853333 0.64-0.853333 0.554667-0.853334 0.597333-0.853333 0.512-0.896 0.554667-0.938667 0.512-0.853333 0.426666-0.981333 0.512-0.938667 0.426667-0.938667 0.426667-0.981333 0.384-0.938667 0.341333-0.981333 0.341333-1.024 0.298667-0.981333 0.298667-0.981334 0.256-1.024 0.256-0.981333 0.213333-1.066667 0.170667-1.024 0.170666-1.024 0.128-1.024 0.128-1.066666 0.085334-1.024 0.085333-1.066667v-1.066667l0.042667-1.28-0.64-340.821333v-2.517333l-0.128-1.109334-0.085334-1.066666-0.128-1.066667-0.170666-1.066667-0.170667-1.066666-0.170667-1.024-0.256-1.024-0.213333-1.024-0.298667-1.024-0.298666-0.981334-0.298667-0.981333-0.341333-0.981333-0.426667-0.938667-0.341333-1.024-0.426667-0.896-0.426667-0.938667-0.469333-0.938666-0.512-0.853334-0.512-0.938666-0.512-0.853334-0.512-0.896-0.597333-0.853333-0.554667-0.853333-0.597333-0.853334-0.64-0.810666-0.64-0.810667-0.682667-0.768-0.682667-0.768-0.682666-0.725333-0.725334-0.768-0.768-0.725334-0.725333-0.682666-0.768-0.682667-0.810667-0.64-0.768-0.682667-0.810666-0.597333-0.853334-0.64-0.853333-0.597333-0.853333-0.554667-0.853334-0.554667-0.853333-0.512-0.938667-0.426666-0.938666-0.554667-0.853334-0.426667-0.981333-0.426666-0.938667-0.426667-0.938666-0.384-0.981334-0.384-0.981333-0.298667-0.981333-0.341333-1.024-0.298667-0.981334-0.298666-1.024-0.213334-1.024-0.256-1.024-0.213333-1.066666-0.128-1.066667-0.170667-1.109333-0.128-1.066667-0.085333-1.066667-0.085333h-1.109333L214.144 384h-0.426667zM640.085333 95.317333l2.517334 0.213334 2.474666 0.298666 2.56 0.426667 2.474667 0.554667 2.56 0.64 2.645333 0.853333 2.56 0.853333 2.602667 0.938667 2.56 0.981333 2.474667 1.024 2.432 1.066667 2.432 1.152 2.346666 1.194667 2.304 1.28 2.304 1.28 2.261334 1.408 2.218666 1.408 2.176 1.450666 2.133334 1.536 2.090666 1.578667 2.005334 1.621333 2.005333 1.621334 1.962667 1.706666 1.92 1.749334 1.834666 1.792 1.792 1.834666 1.749334 1.877334 1.792 1.877333 1.621333 2.005333 1.621333 1.962667 1.578667 2.005333 1.536 2.048 1.493333 2.133334 1.408 2.133333 1.365334 2.133333 1.322666 2.176 1.28 2.261334 1.194667 2.261333 1.152 2.261333 1.109333 2.346667 1.066667 2.304 0.981333 2.346667 0.938667 2.432 0.853333 2.389333 0.853334 2.389333 0.768 2.474667 0.725333 2.474667 0.64 2.474666 0.554667 2.56 0.554666 2.517334 0.426667 2.517333 0.426667 2.56 0.341333 2.56 0.298667 2.602667 0.213333 2.56 0.170667 2.645333 0.085333 2.602667v5.248l-0.128 2.645333-0.170667 2.645333-0.213333 2.645334-0.341333 2.645333-0.341334 2.645333-0.469333 2.688-0.469333 2.645334-0.597334 2.645333-0.64 2.688-0.725333 2.645333L693.76 341.333333h135.637333l2.432 0.042667 2.432 0.085333 2.474667 0.170667 2.389333 0.256 2.432 0.298667 2.432 0.426666 2.346667 0.426667 2.346667 0.554667 2.389333 0.554666 2.304 0.64 2.261333 0.725334 2.304 0.768 2.261334 0.810666 2.218666 0.896 2.176 0.938667 2.218667 1.024 2.133333 1.152 2.133334 1.109333 2.048 1.194667 2.048 1.28 2.005333 1.28 1.962667 1.365333 1.92 1.493334 1.962666 1.493333 1.834667 1.536 1.792 1.578667 1.792 1.706666 1.706667 1.664 1.706666 1.706667 1.664 1.877333 1.578667 1.834667 1.536 1.92 1.493333 2.005333 1.408 1.962667 1.365334 2.005333 1.28 2.048 1.28 2.133334 1.152 2.133333 1.109333 2.133333 1.066667 2.218667 0.981333 2.133333 0.853333 2.261334 0.896 2.218666 0.853334 2.304 0.682666 2.304 0.64 2.304 0.597334 2.346667 0.554666 2.304 0.426667 2.346667 0.426667 2.346666 0.341333 2.432 0.298667 2.389334 0.170666 2.389333 0.128 2.432 0.085334 2.389333v2.389334l-0.085334 2.432-0.128 2.432-0.213333 2.389333-0.298667 2.432-0.384 2.432-0.426666 2.389333-0.426667 2.389334-0.64 2.389333-76.842667 307.541333-0.725333 2.688-0.768 2.688-0.810667 2.645334-0.853333 2.602666-0.896 2.645334-0.981333 2.517333-1.024 2.56-1.066667 2.517333-1.152 2.474667-1.152 2.432-1.237333 2.432-1.237334 2.389333-1.322666 2.346667-1.322667 2.304-1.450667 2.304-1.450666 2.261333-1.450667 2.176-1.536 2.218667-1.578667 2.133333-1.621333 2.133334-1.664 2.048-1.706667 2.090666-1.749333 2.005334-1.749333 1.962666-1.877334 1.92-1.834666 1.92-1.877334 1.834667-1.92 1.792-2.005333 1.792-2.005333 1.706667-2.005334 1.706666-2.048 1.664-2.133333 1.621334-2.133333 1.536-2.176 1.578666-2.176 1.450667-2.261334 1.408-2.218666 1.408-2.304 1.322667-2.346667 1.28-2.304 1.28-2.389333 1.194666-2.346667 1.152-2.474667 1.109334-2.432 1.066666-2.474666 0.981334-2.517334 0.981333-2.474666 0.938667-2.56 0.853333-2.56 0.810667-2.56 0.725333-2.602667 0.725333-2.645333 0.64-2.645334 0.597334-2.645333 0.512-2.688 0.469333-2.688 0.426667-2.688 0.426666-2.730667 0.298667-2.730666 0.256-2.730667 0.213333-2.816 0.128-2.730667 0.085334-2.858666 0.042666h-284.586667l-2.133333-0.128-2.133334-0.128-2.090666-0.170666-2.090667-0.213334-2.048-0.298666-2.048-0.341334-2.090667-0.384-2.048-0.426666-2.005333-0.426667-2.005333-0.597333-2.048-0.554667-1.962667-0.64-1.962667-0.682667-1.962666-0.725333-1.962667-0.768-1.877333-0.853333-1.877334-0.853334-1.877333-0.853333-1.877333-1.024-1.834667-0.981333-1.792-1.024-1.749333-1.109334-1.792-1.109333-1.706667-1.237333-1.706667-1.237334-1.706666-1.237333-1.578667-1.322667-1.664-1.322666-1.578667-1.408-1.536-1.450667-1.493333-1.493333-1.493333-1.493334-1.450667-1.536-1.408-1.578666-1.28-1.664-1.365333-1.621334-1.28-1.664-1.194667-1.706666-1.194667-1.706667-1.152-1.792-1.066666-1.706667-1.066667-1.834666-0.981333-1.834667-0.981334-1.877333-0.896-1.834667-0.853333-1.92-0.853333-1.877333-0.768-1.92-0.725334-2.005334-0.682666-1.962666-0.64-1.962667-0.554667-2.048-0.554667-2.005333-0.469333-2.005334-0.426667-2.048-0.426666-2.048-0.298667-2.090666-0.256-2.048-0.256-2.133334-0.170667-2.090666-0.128-2.090667L341.333333 770.133333 341.333333 768.085333V425.728l0.128-2.133333 0.128-2.133334 0.170667-2.133333 0.256-2.133333 0.256-2.133334 0.341333-2.090666 0.384-2.048 0.426667-2.133334 0.512-2.005333 0.554667-2.048 0.597333-2.048 0.597333-2.005333 0.682667-1.962667 0.768-2.005333 0.768-1.962667 0.853333-1.92 0.853334-1.92 0.938666-1.92 0.981334-1.877333 1.024-1.834667 1.024-1.834667 1.109333-1.834666 1.194667-1.706667 1.194666-1.792 1.237334-1.706667 1.28-1.706666 1.322666-1.664 1.365334-1.664 1.450666-1.578667 1.450667-1.578667 1.493333-1.493333 1.536-1.536 1.578667-1.450667 1.578667-1.408 1.664-1.365333 1.664-1.322667 1.706666-1.28 1.706667-1.28 1.706667-1.194666 1.834666-1.152 1.792-1.109334 1.792-1.066666 1.877334-1.024 1.877333-0.981334 1.92-0.938666 1.877333-0.853334 1.92-0.853333 2.005334-0.768 1.962666-0.725333 2.005334-0.682667 2.005333-0.64 2.048-0.597333 2.048-0.512 2.048-0.512 2.090667-0.426667 2.090666-0.426667 2.090667-0.341333 2.133333-0.298667 2.090667-0.213333 2.133333-0.213333 2.133334-0.128 2.133333-0.085334H430.933333l2.986667-0.213333 2.944-0.256 2.986667-0.384 2.901333-0.426667 2.901333-0.597333 2.816-0.64 2.858667-0.768 2.773333-0.853333 2.773334-0.981334 2.730666-1.024 2.645334-1.194666 2.645333-1.194667 2.56-1.322667 2.56-1.408 2.474667-1.493333 2.474666-1.578667 2.346667-1.664 2.346667-1.749333 2.261333-1.792 2.218667-1.877333 2.133333-2.048 2.048-2.005334 2.005333-2.133333 1.962667-2.218667 1.834667-2.261333 1.749333-2.346667 1.706667-2.389333 1.664-2.517333 1.536-2.56 1.450666-2.602667 1.365334-2.688 81.92-166.954667 1.194666-2.304 1.28-2.218666 1.365334-2.133334 1.450666-2.133333 1.536-1.92 1.621334-1.962667 1.664-1.792 1.749333-1.749333 1.834667-1.706667 1.92-1.536 1.962666-1.536 2.005334-1.365333 2.048-1.322667 2.133333-1.28 2.176-1.066666 2.176-1.024 2.304-0.981334 2.261333-0.853333 2.346667-0.725333 2.346667-0.64 2.432-0.554667 2.389333-0.426667 2.432-0.341333 2.474667-0.256 2.474666-0.128h2.474667l2.517333 0.085333z m-3.754666 42.581334l-0.597334 0.042666-0.64 0.042667-0.597333 0.085333-0.597333 0.128-0.597334 0.128-0.597333 0.170667-0.597333 0.170667-0.597334 0.256-0.554666 0.256-0.597334 0.256-0.554666 0.298666-0.554667 0.298667-0.512 0.341333-0.512 0.341334-0.426667 0.384-0.512 0.384-0.469333 0.426666-0.426667 0.426667-0.426666 0.426667-0.426667 0.469333-0.341333 0.512-0.426667 0.512-0.298667 0.554667-0.298666 0.554666-0.554667 1.024-81.877333 166.912-1.877334 3.669334-2.176 3.968-2.346666 3.84-2.432 3.712-2.56 3.626666-2.730667 3.541334-2.773333 3.413333-2.901334 3.328-3.072 3.242667-3.072 3.072-3.242666 2.986666-3.328 2.858667-3.413334 2.730667-3.498666 2.645333-3.541334 2.474667-3.712 2.389333-3.712 2.261333-3.84 2.090667-3.882666 2.005333-3.968 1.834667-4.010667 1.706667-4.138667 1.621333-4.138666 1.408-4.224 1.28-4.266667 1.152-4.266667 1.024-4.352 0.853333-4.437333 0.725334-4.437333 0.554666-4.437334 0.384-4.522666 0.256h-4.266667l-1.365333 0.085334h-1.109334l-1.109333 0.085333-1.066667 0.128-1.066666 0.085333-1.066667 0.170667-1.024 0.170667-1.066667 0.170666-1.066666 0.256-1.066667 0.213334-1.024 0.298666-1.024 0.298667-1.024 0.298667-0.981333 0.341333-1.024 0.426667-0.981334 0.341333-1.024 0.426667-0.981333 0.469333-0.938667 0.426667-0.938666 0.512-0.938667 0.512-0.938667 0.597333-0.896 0.554667-0.896 0.554666-0.938666 0.597334-0.853334 0.64-0.853333 0.64-0.853333 0.682666-0.810667 0.682667-0.853333 0.725333-0.725334 0.725334-0.853333 0.768-0.682667 0.768-0.768 0.853333-0.725333 0.810667-0.682667 0.810666-0.682666 0.853334-0.64 0.853333-0.64 0.853333-0.597334 0.896-0.597333 0.896-0.554667 0.896-0.554666 0.981334-0.512 0.853333-0.469334 1.024-0.469333 0.938667-0.426667 0.981333-0.426666 0.981333-0.426667 0.981334-0.384 0.981333-0.341333 1.066667-0.341334 1.024-0.298666 1.024-0.256 1.024-0.256 1.024-0.213334 1.024-0.213333 1.066666-0.170667 1.066667-0.128 1.109333-0.128 1.066667-0.085333 1.066667-0.085333 1.066666V770.133333l0.085333 1.024 0.085333 1.066667 0.128 1.024 0.128 1.024 0.170667 1.109333 0.170667 1.024 0.213333 0.981334 0.256 1.024 0.256 0.981333 0.298667 1.024 0.298666 0.981333 0.341334 0.981334 0.426666 1.024 0.384 0.938666 0.384 0.938667 0.426667 0.981333 0.426667 0.896 0.512 0.938667 0.512 0.896 0.512 0.896 0.554666 0.896 0.554667 0.853333 0.597333 0.853334 0.597334 0.853333 0.64 0.853333 0.64 0.853334 0.682666 0.853333 0.682667 0.725333 0.768 0.768 0.725333 0.768 0.768 0.768 0.768 0.725334 0.810667 0.682666 0.768 0.682667 0.853333 0.64 0.853334 0.64 0.853333 0.597333 0.853333 0.597334 0.853334 0.554666 0.853333 0.554667 0.938667 0.512 0.896 0.512 0.938666 0.469333 0.938667 0.512 0.938667 0.426667 0.938666 0.384 0.981334 0.384 0.981333 0.384 0.981333 0.341333 0.981334 0.298667 1.024 0.298667 0.981333 0.256 1.024 0.256 1.024 0.213333 1.066667 0.170667 1.024 0.170666 1.024 0.128 1.024 0.128 1.066666 0.085334 1.024 0.085333 1.066667 0.042667H711.082667l1.877333-0.085334 1.834667-0.085333 1.877333-0.128 1.834667-0.170667 1.834666-0.213333 1.792-0.256 1.834667-0.298667 1.792-0.341333 1.792-0.341333 1.749333-0.426667 1.749334-0.426667 1.749333-0.426666 1.706667-0.512 1.706666-0.597334 1.749334-0.554666 1.706666-0.597334 1.664-0.64 1.664-0.682666 1.621334-0.725334 1.621333-0.725333 1.578667-0.768 1.664-0.853333 1.536-0.768 1.578666-0.896 1.493334-0.938667 1.536-0.938667 1.536-0.938666 1.450666-0.981334 1.450667-1.024 1.450667-1.066666 1.408-1.066667 1.365333-1.109333 1.408-1.152 1.28-1.152 1.365333-1.194667 1.28-1.28 1.28-1.194667 1.28-1.28 1.237334-1.28 1.194666-1.28 1.152-1.408 1.152-1.365333 1.109334-1.365333 1.066666-1.450667 1.109334-1.450667 1.024-1.450666 0.981333-1.493334 0.938667-1.493333 0.938666-1.536 0.938667-1.621333 0.853333-1.536 0.853334-1.621334 0.853333-1.578666 0.768-1.706667 0.768-1.621333 0.682667-1.706667 0.682666-1.664 0.682667-1.706667 0.597333-1.749333 0.597334-1.792 0.512-1.792 0.512-1.792 0.554666-2.005333 76.757334-307.029334 0.341333-1.536 0.256-1.194666 0.213333-1.194667 0.170667-1.194667 0.128-1.194666 0.128-1.194667 0.042667-1.237333 0.042666-1.194667V424.96l-0.085333-1.194667-0.085333-1.194666-0.170667-1.194667-0.128-1.194667-0.213333-1.194666-0.213334-1.152-0.298666-1.194667-0.298667-1.152-0.298667-1.152-0.426666-1.152-0.341334-1.152-0.426666-1.109333-0.469334-1.109334-0.469333-1.109333-0.512-1.066667-0.554667-1.066666-0.64-1.109334-0.597333-1.024-0.682667-1.024-0.64-1.024-0.725333-0.981333-0.725333-0.981333-0.768-0.938667-0.853334-0.938667-0.768-0.938666-0.853333-0.853334-0.853333-0.853333-0.938667-0.853333-0.853333-0.810667-0.938667-0.768-0.938667-0.725333-0.981333-0.725334-0.981333-0.682666-1.024-0.64-0.981334-0.682667-1.109333-0.597333-1.024-0.554667-1.066667-0.554667-1.109333-0.512-1.066667-0.426666-1.109333-0.426667-1.109333-0.469333-1.194667-0.384-1.152-0.341334-1.152-0.341333-1.152-0.298667-1.194667-0.256-1.152-0.213333-1.194666-0.170667-1.237334-0.170666-1.237333-0.128-1.194667-0.085334-1.28-0.042666L829.141333 384H693.76l-3.584-0.128-3.541333-0.469333-3.541334-0.725334-3.413333-1.066666-3.328-1.28-3.2-1.621334-3.029333-1.877333-2.944-2.133333-2.688-2.346667-2.517334-2.56-2.304-2.730667-2.005333-2.986666-1.792-3.072-1.493333-3.285334-1.28-3.413333-0.938667-3.413333-0.64-3.498667-0.341333-3.541333-0.085334-3.626667 0.256-3.541333 0.554667-3.584 0.853333-3.456 31.829334-111.616 0.512-1.92 0.426666-1.578667 0.341334-1.621333 0.298666-1.578667 0.298667-1.578667 0.213333-1.664 0.170667-1.578666 0.128-1.578667 0.128-1.578667V201.813333l0.085333-1.621333-0.042666-1.578667-0.042667-1.536-0.085333-1.536-0.128-1.536-0.170667-1.578666-0.213333-1.536-0.256-1.536-0.256-1.536-0.384-1.493334-0.341334-1.536-0.384-1.493333-0.426666-1.450667-0.426667-1.493333-0.512-1.450667-0.512-1.493333-0.597333-1.408-0.597334-1.408-0.597333-1.408-0.682667-1.365333-0.682666-1.408-0.725334-1.365334-0.768-1.28-0.810666-1.365333-0.853334-1.322667-0.853333-1.28-0.853333-1.28-0.938667-1.237333-0.938667-1.194667-0.981333-1.194666-0.981333-1.152-1.024-1.152-1.109334-1.109334-1.066666-1.152-1.109334-1.066666-1.152-1.024-1.152-1.024-1.194666-0.981334-1.237334-0.981333-1.237333-0.938667-1.28-0.896-1.28-0.853333-1.322667-0.853333-1.322666-0.853334-1.408-0.768-1.408-0.768-1.408-0.725333-1.450667-0.682667-1.450667-0.64-1.493333-0.597333-1.536-0.597333-1.536-0.554667-1.578667-0.512-1.450666-0.512-0.853334-0.213333-0.64-0.128-0.64-0.128-0.64-0.085334h-1.877333z" fill="#8BD1AE" p-id="4617"></path></svg>