<?xml version="1.0" standalone="no"?><!DOCTYPE svg PUBLIC "-//W3C//DTD SVG 1.1//EN" "http://www.w3.org/Graphics/SVG/1.1/DTD/svg11.dtd"><svg t="1677836101958" class="icon" viewBox="0 0 1174 1024" version="1.1" xmlns="http://www.w3.org/2000/svg" p-id="1501" xmlns:xlink="http://www.w3.org/1999/xlink" width="146.75" height="128"><path d="M941.193738 0l204.207798 102.103899-51.05195 51.051949v816.83119a51.051949 51.051949 0 0 1-45.078871 50.694585l-5.973078 0.357364h-102.103899v-102.103899h-816.831189v51.05195a51.051949 51.051949 0 0 1-45.078872 50.694585l-5.973078 0.357364h-51.051949v-969.987038l102.103899 51.05195h816.831189v-102.103899z m0 149.378004h-816.831189v718.505135h816.831189V149.378004z" fill="#8a8a8a" p-id="1502"></path><path d="M313.969488 403.208296a51.051949 51.051949 0 0 1 14.90717 2.246286c35.174793 8.168312 56.667664 45.129923 56.667663 78.722106 0 35.072689-25.219663 69.430651-46.661481 90.872469-12.252468 12.252468-28.691196 22.360754-49.316183 30.478014l-10.72091 3.879948-2.961013-7.045169c30.63117-13.273507 51.613521-31.448001 62.998106-54.370326 12.150364-28.486988 5.717818-42.781534-19.297637-42.883637l-5.615715 0.153156h1.531559-1.58261l-5.922027-0.25526a51.051949 51.051949 0 0 1-44.721507-44.77256L262.917539 454.260245a51.051949 51.051949 0 0 1 51.051949-51.051949z m224.67963 0a51.051949 51.051949 0 0 1 14.907169 2.246286c35.225845 8.168312 56.667664 45.129923 56.667664 78.722106 0 35.072689-25.219663 69.430651-46.661482 90.872469-12.252468 12.252468-28.691196 22.360754-49.316183 30.478014l-10.72091 3.879948-2.961013-7.045169c30.63117-13.273507 51.664573-31.448001 62.998106-54.370326 12.150364-28.486988 5.717818-42.781534-19.246585-42.883637l-4.288364 0.102104h-0.25526l-1.123142 0.102104a51.051949 51.051949 0 0 1-50.694586-45.078872L487.546116 454.260245a51.051949 51.051949 0 0 1 51.05195-51.051949z m224.679629 102.103899a51.051949 51.051949 0 0 1-50.694586-45.078872l-0.357364-5.973078a51.051949 51.051949 0 0 1 65.959119-48.805663c35.225845 8.168312 56.667664 45.129923 56.667664 78.722106 0 35.072689-25.168611 69.430651-46.61043 90.872469-12.252468 12.252468-28.742247 22.360754-49.367235 30.478014l-10.669858 3.879948-3.012065-7.045169c30.63117-13.273507 51.664573-31.448001 63.049158-54.370326 12.150364-28.486988 5.717818-42.781534-19.297637-42.883637l-4.288364 0.102104-1.378402 0.102104 1.225246-0.102104-1.225246 0.102104z m-223.454383-0.102104h-0.102104l-1.123142 0.102104 1.225246-0.102104z" fill="#8a8a8a" p-id="1503"></path></svg>