<?xml version="1.0" standalone="no"?><!DOCTYPE svg PUBLIC "-//W3C//DTD SVG 1.1//EN" "http://www.w3.org/Graphics/SVG/1.1/DTD/svg11.dtd"><svg t="1677836137596" class="icon" viewBox="0 0 1024 1024" version="1.1" xmlns="http://www.w3.org/2000/svg" p-id="1938" xmlns:xlink="http://www.w3.org/1999/xlink" width="128" height="128"><path d="M717.730909 114.874182C601.972364 198.749091 450.885818 328.704 303.895273 563.665455c-146.990545 234.914909-218.484364 444.322909-124.183273 384.651636 0 0 156.299636-311.249455 269.032727-363.287273 112.779636-52.037818 221.090909-65.070545 289.745455-149.597091 0 0 30.72-58.740364-103.470546 0 0 0-46.964364-6.981818 20.712728-42.728727 67.630545-35.84 208.477091-109.149091 227.607272-170.961455 0 0 30.114909-39.656727-62.045091 0s-109.149091 22.062545-41.425454-21.410909c67.770182-43.380364 138.24-103.517091 144.896-149.550545 6.702545-46.08-91.136-19.735273-206.941091 64.093091zM480.256 1005.754182l88.901818-41.658182h406.202182v-399.825455h-93.090909v355.421091H391.400727zM386.606545 28.299636l-88.901818 41.658182H31.185455v539.508364h88.901818V114.408727h355.421091z" fill="#8a8a8a" p-id="1939"></path></svg>