<svg xml:space="preserve" style="enable-background:new 0 0 1200 1200;" viewBox="0 0 1200 1200" y="0px" x="0px" xmlns:xlink="http://www.w3.org/1999/xlink" xmlns="http://www.w3.org/2000/svg" id="小悟" version="1.1">
<style type="text/css">
	.st0{fill:#EDEDED;}
	.st1{clip-path:url(#SVGID_2_);}
	.st2{fill:#E84A2C;}
	.st3{fill:#F44F2E;}
	.st4{clip-path:url(#SVGID_4_);fill:#2E2725;}
	.st5{clip-path:url(#SVGID_6_);fill:#F44F2E;}
	.st6{clip-path:url(#SVGID_6_);fill-rule:evenodd;clip-rule:evenodd;fill:#FCDE65;}
	.st7{clip-path:url(#SVGID_6_);fill:#CCA033;}
	.st8{clip-path:url(#SVGID_6_);}
	.st9{fill-rule:evenodd;clip-rule:evenodd;fill:#FFFAE6;}
	.st10{fill:#2E2725;}
	.st11{opacity:0.8;clip-path:url(#SVGID_6_);}
	.st12{fill-rule:evenodd;clip-rule:evenodd;fill:#FFFFFF;}
	.st13{clip-path:url(#SVGID_6_);fill:#FFFFFF;}
	.st14{opacity:0.9;clip-path:url(#SVGID_6_);fill:#FFFFFF;}
	.st15{opacity:0.25;clip-path:url(#SVGID_6_);fill:#1D0B09;}
	.st16{fill:#FCDE65;}
	.st17{fill:#FCD514;}
	.st18{fill-rule:evenodd;clip-rule:evenodd;fill:#2E72FA;}
	.st19{fill-rule:evenodd;clip-rule:evenodd;fill:#2697FA;}
	.st20{fill:#FEDA84;}
	.st21{fill:#1F1E1B;}
	.st22{fill:#FFFFFF;}
</style>
<rect height="1200" width="1200" class="st0"></rect>
<g>
	<defs>
		<rect height="1200" width="1200" id="SVGID_1_"></rect>
	</defs>
	<clipPath id="SVGID_2_">
		<use style="overflow:visible;" xlink:href="#SVGID_1_"></use>
	</clipPath>
	<g class="st1" id="head_3_">
		<path d="M149.32,392.86c-1.97,0.88-3.75-1.55-2.31-3.16L255.7,268.62c2.41-2.68,6.08-3.86,9.6-3.08l107.02,23.68
			c1.81,0.49,2.01,2.99,0.29,3.76L149.32,392.86z" class="st2"></path>
		<path d="M1037.5,354.39c2.2,0.45,3.36-2.5,1.44-3.67l-147.76-90.16c-6.25-3.89-13.15-6.6-20.38-7.99l-484.68-93.3
			c-2.08-0.4-3.27,2.28-1.59,3.56c0,0,65.47,53.1,87.25,71.1c5.76,4.62,12.78,6.77,24.87,9.42
			C584.34,261.36,966.88,339.9,1037.5,354.39z" class="st3"></path>
		<g>
			<defs>
				<path d="M320.51,316.36L257.97,74.88c-2.77-10.69,3.65-21.61,14.35-24.38l19.36-5.01
					c10.69-2.77,21.61,3.65,24.38,14.35l60.04,231.81L320.51,316.36z" id="SVGID_3_"></path>
			</defs>
			<clipPath id="SVGID_4_">
				<use style="overflow:visible;" xlink:href="#SVGID_3_"></use>
			</clipPath>
			
				<rect height="430.76" width="60" class="st4" transform="matrix(0.9681 -0.2507 0.2507 0.9681 -53.5778 92.4348)" y="41.12" x="306"></rect>
		</g>
		<g>
			<defs>
				<path d="M768.99,915.76l262.55-64.24c8.92-2.18,15.21-10.16,15.25-19.34l1.89-460.54
					c0.02-5.76-4.05-10.73-9.71-11.83L495.21,254.1c-8.12-1.58-16.53-0.6-24.07,2.8L147.94,398.54c-4.38,1.92-7.2,6.26-7.18,11.04
					l1.89,439.86c0.04,9.96,7.4,18.36,17.26,19.73l209.23,28.89l361.67,26L768.99,915.76z" id="SVGID_5_"></path>
			</defs>
			<clipPath id="SVGID_6_">
				<use style="overflow:visible;" xlink:href="#SVGID_5_"></use>
			</clipPath>
			<path d="M758.99,924.76l285.82-66.74c2.08-0.52,3.92-12.22,3.92-12.22V360.7L495.21,253.1
				c-8.12-1.58-16.53-0.6-24.07,2.8l-330.41,144.8v475.1l230.42,28.27L758.99,924.76z" class="st5"></path>
			<path d="M339.72,519.12c0,22.54,0,84.99,0,107.51c0.09,5.47,0.15,8.08-5.38,11.38c-11.66,6.4-39.67,19.58-57.62,9.86
				c-23.15-12.53-38-39.64-38-68c0-33.02,5.79-56.81,22-70c21.45-17.46,59.47-6.2,73.55-1.11
				C339.62,510.56,339.54,513.93,339.72,519.12z" class="st6"></path>
			<path d="M323.58,563.37c-24.53-22.66-56.73-11.76-58.09-11.29c-2.34,0.82-3.58,3.38-2.76,5.72
				c0.81,2.34,3.38,3.58,5.72,2.78c0.18-0.06,11.32-3.78,24.67-1.9c-16.09,8.96-19.89,27.35-20.07,28.29
				c-0.48,2.43,1.11,4.79,3.54,5.27c0.29,0.06,0.59,0.09,0.88,0.09c2.1,0,3.98-1.48,4.41-3.62c0.18-0.91,4.71-22.23,25.31-25.43
				c0.16-0.02,0.31-0.08,0.46-0.12c3.37,1.7,6.69,3.93,9.83,6.83c0.87,0.8,1.96,1.19,3.05,1.19c1.21,0,2.42-0.49,3.31-1.45
				C325.52,567.9,325.41,565.06,323.58,563.37z" class="st7"></path>
			<g class="st8">
				<path d="M947.15,464.71l-302.31-56.95c-43.7-8.23-84.12,25.28-84.12,69.75v66.16c0,39.01,27.77,72.49,66.1,79.71
					l47.43,8.93c4.73,0.89,8.15,5.02,8.15,9.83v29.74c0,29.32,20.91,54.46,49.73,59.81l105.64,19.62
					c29.93,5.56,57.56-17.41,57.56-47.85v-17.45c0-6.26,5.69-10.99,11.85-9.83l17.45,3.29c37.45,7.06,72.1-21.67,72.1-59.79v-95.2
					C996.72,495.24,975.9,470.12,947.15,464.71z" class="st9"></path>
				<g>
					<path d="M757.01,652.55c-2.26,0-4.42-1.28-5.44-3.46c-1.4-3-0.11-6.57,2.89-7.98c1.1-0.52,27.31-12.67,52.55-12.67
						c3.31,0,6,2.69,6,6s-2.69,6-6,6c-22.52,0-47.21,11.42-47.46,11.53C758.72,652.37,757.86,652.55,757.01,652.55z" class="st2"></path>
					<path d="M757.01,655.55c-3.48,0-6.68-2.04-8.16-5.19c-2.1-4.49-0.16-9.86,4.33-11.96
						c1.13-0.53,27.89-12.95,53.82-12.95c4.96,0,9,4.04,9,9s-4.04,9-9,9c-21.81,0-45.94,11.14-46.18,11.25
						C759.61,655.26,758.33,655.55,757.01,655.55z" class="st2"></path>
				</g>
				<path d="M797.48,603.93l23.65-28.58c2.57-3.21,0.45-7.71-3.93-8.34l-47.3-7.76c-4.99-0.72-8.68,4.03-6.15,7.92
					l23.65,36.35C789.57,606.87,794.95,607.1,797.48,603.93z" class="st10"></path>
				<path d="M646,556c-16.57,0-30-13.43-30-30v-22c0-16.57,13.43-30,30-30s30,13.43,30,30v22
					C676,542.57,662.57,556,646,556z" class="st10"></path>
				<path d="M921,608c-16.02,0-29-12.98-29-29v-22c0-16.02,12.98-29,29-29s29,12.98,29,29v22
					C950,595.02,937.02,608,921,608z" class="st10"></path>
			</g>
			<g class="st11">
				<path d="M280.04,382.58v39.12c0,1.43,1.44,2.41,2.78,1.89l29.31-11.58c0.77-0.31,1.28-1.05,1.28-1.89v-40.01
					c0-1.46-1.49-2.44-2.83-1.87l-29.31,12.48C280.53,381.04,280.04,381.77,280.04,382.58z" class="st12"></path>
				<path d="M230.8,444.15l29.33-11.59c0.77-0.3,1.28-1.05,1.28-1.88v-38.45c0-1.45-1.48-2.42-2.81-1.86l-29.33,12.49
					c-0.74,0.32-1.23,1.05-1.23,1.86v37.56C228.04,443.7,229.48,444.68,230.8,444.15z" class="st12"></path>
				<path d="M179.79,464.31l29.35-11.6c0.77-0.3,1.27-1.04,1.27-1.87v-36.92c0-1.44-1.47-2.41-2.8-1.85l-29.35,12.49
					c-0.74,0.32-1.22,1.04-1.22,1.85v36.02C177.04,463.86,178.47,464.84,179.79,464.31z" class="st12"></path>
			</g>
			<path d="M247.46,707.94c-0.4,0-0.8-0.05-1.2-0.16c-27.72-7.65-39.63-29.08-40.12-29.99
				c-1.19-2.18-0.38-4.92,1.81-6.1c2.18-1.19,4.92-0.38,6.1,1.81c0.1,0.18,10.7,19.01,34.6,25.6c2.4,0.66,3.8,3.14,3.14,5.53
				C251.25,706.63,249.44,707.94,247.46,707.94z" class="st13"></path>
			<path d="M269.7,688.06c-0.35,0-0.7-0.04-1.05-0.12c-44.5-10.6-55.58-51.28-56.03-53.01
				c-0.63-2.4,0.81-4.86,3.22-5.49c2.41-0.63,4.86,0.81,5.49,3.22c0.4,1.51,10.28,37.2,49.41,46.52c2.42,0.58,3.91,3,3.33,5.42
				C273.58,686.67,271.73,688.06,269.7,688.06z" class="st13"></path>
			<path d="M483.98,698.86c-2.49,0-4.5-2.01-4.5-4.5V284.25c0-2.49,2.01-4.5,4.5-4.5s4.5,2.01,4.5,4.5v410.11
				C488.48,696.84,486.46,698.86,483.98,698.86z" class="st14"></path>
			<path d="M382.87,901.77L158.3,870.14c-6.19-0.87-7.09-9.44-1.21-11.58l311.26-113.18
				c10.01-3.66,20.81-4.56,31.29-2.62l532.63,97.97c6.21,1.14,6.67,9.86,0.62,11.65l-29.21,8.64l-265.85,65.24L382.87,901.77z" class="st15"></path>
		</g>
		<path d="M579.86,196.31l107.92,89.48c2.24,1.9,3.53,4.69,3.53,7.63l2,147.85c0,3.19,3.55,5.09,6.21,3.34l39.32-26
			c1.66-1.1,3.87-0.81,5.19,0.67l37.24,41.68c1.39,1.55,3.73,1.78,5.4,0.53l35.46-26.81c1.52-1.15,3.63-1.07,5.05,0.19l48.51,42.66
			c2.65,2.33,6.79,0.34,6.64-3.18l-5.4-146.03c-0.13-2.92-1.52-5.64-3.83-7.44l-117.61-89.34c-2.47-1.88-5.35-3.15-8.4-3.73
			L579.86,196.31z" class="st16"></path>
		<path d="M1053.74,457.37l-198.43-34.69c-9.02-1.58-17.19-6.3-23.05-13.33l0,0c-5.82-6.97-9-15.77-8.98-24.85
			l0.12-74.51c0.02-10.77,4.87-20.97,13.21-27.78v0c8.35-6.81,19.31-9.52,29.87-7.38l47.21,9.57c8.83,1.79,16.76,6.58,22.46,13.55v0
			c5.7,6.97,8.81,15.7,8.81,24.71v30.51c0,5.26-4.07,9.62-9.32,9.98l-32.54,2.22c-1.16,0.08-2.14-0.84-2.14-2v-33.37
			c0-1.9-1.34-3.54-3.21-3.92l-25.59-5.19c-2.48-0.5-4.79,1.39-4.79,3.91l-0.08,52.08c0,1.94,1.38,3.6,3.29,3.94l185.23,33.46
			c1.93,0.35,3.33,2.05,3.29,4.01l-0.67,35.22C1058.38,455.96,1056.16,457.79,1053.74,457.37z" class="st10"></path>
		<path d="M135.38,498.96l-0.58-30.06c-0.08-4.08,2.34-7.8,6.1-9.4L475,317.9c3.84-1.63,7.9-2.68,12.05-3.12h0
			c4.02-0.43,8.09-0.28,12.07,0.43l205.92,37.2c2.45,0.44,4.7-1.43,4.71-3.92l0.25-58.12c0.01-1.91-1.34-3.56-3.21-3.94l-25.81-5.18
			c-2.48-0.5-4.79,1.4-4.79,3.92V323c0,1.42-1.44,2.39-2.76,1.85l-31.3-12.8c-6.01-2.46-9.94-8.31-9.94-14.81v-26.79
			c0-10.77,4.83-20.98,13.17-27.8l0,0c8.33-6.83,19.29-9.55,29.85-7.43l47.51,9.54c8.86,1.78,16.83,6.58,22.54,13.58l0,0
			c5.71,7,8.81,15.77,8.77,24.81l-0.34,79.66c-0.05,10.68-4.81,20.8-13.03,27.63l0,0c-8.21,6.83-19.03,9.68-29.54,7.78
			l-213.73-38.61c-3.75-0.68-7.62-0.27-11.15,1.18L140.9,502.58C138.3,503.65,135.43,501.77,135.38,498.96z" class="st10"></path>
		<g>
			<path d="M212.31,499.89c-2.06,0-4.13-0.63-5.92-1.94l-28.59-21.02c-4.45-3.27-5.4-9.53-2.13-13.98
				c3.27-4.45,9.53-5.4,13.98-2.13l28.59,21.02c4.45,3.27,5.4,9.53,2.13,13.98C218.42,498.48,215.39,499.89,212.31,499.89z" class="st17"></path>
			<path d="M186.37,536.89c-1.16,0-2.34-0.2-3.49-0.63l-64.05-23.88c-5.17-1.93-7.81-7.69-5.88-12.86
				s7.69-7.81,12.86-5.88l64.05,23.88c5.17,1.93,7.81,7.69,5.88,12.86C194.24,534.4,190.42,536.89,186.37,536.89z" class="st17"></path>
			<path d="M128.04,589.31c-4.79,0-9.03-3.46-9.85-8.34c-0.92-5.45,2.76-10.6,8.2-11.52l55.2-9.29
				c5.44-0.92,10.6,2.75,11.52,8.2c0.92,5.45-2.76,10.6-8.2,11.52l-55.2,9.29C129.15,589.27,128.59,589.31,128.04,589.31z" class="st17"></path>
		</g>
	</g>
	<g class="st1" id="body_3_">
		<path d="M785.72,942.87c0,0,22.01-25.26,97-18c59.24,5.73,85.42,4.9,93.8,4.3c1.5-0.11,2.58,1.42,1.97,2.79
			c-4.91,11.14-25.9,48.7-86.77,52.9c-71.57,4.94-114-25-114-25L785.72,942.87z" class="st18"></path>
		<path d="M748.72,925.87c0,0,62.83-6.72,96.86,27c34.03,33.72,66.28,108.99,74.89,117
			c7.13,6.63-57.55,11.51-117.83-54S748.72,925.87,748.72,925.87z" class="st19"></path>
		<polygon points="737.73,1159.86 742.72,1209.87 827.72,1209.87 821.73,1157.86" class="st20"></polygon>
		<path d="M738.72,1160.86l4.5,49.01h-470.5c0,0-14.15-384.08,257-384.08c112.29,0,191.89,42.5,243.72,101.46
			c84.79,96.46,98.28,233.6,98.28,233.6h-179L738.72,1160.86z" class="st21"></path>
		<path d="M876.45,1156.86c-0.26-2.47-2.47-4.26-4.94-4.01c-0.43,0.04-43.23,4.49-86.87,5.96
			c-25.52,0.86-46.3,0.55-61.76-0.93c-25.02-2.38-29.18-7.12-29.86-8.52l-0.21-0.43l-0.29-0.38c-2.43-3.12-9.19-19.88-19.4-108.05
			c-5.65-48.84-9.63-96.09-9.67-96.56c-0.21-2.48-2.39-4.33-4.86-4.11c-2.48,0.21-4.32,2.38-4.11,4.86
			c0.04,0.47,4.02,47.84,9.69,96.83c1,8.61,1.96,16.54,2.89,23.86c-32.15-38.01-41.57-89.29-41.67-89.84
			c-0.43-2.45-2.77-4.08-5.22-3.64c-2.45,0.43-4.08,2.77-3.65,5.21c0.44,2.51,11.33,61.99,51.23,102.38
			c0.38,0.38,0.82,0.67,1.28,0.89c8.42,61.42,13.89,70.45,16.11,73.38c3.76,6.89,15.51,11.05,36.88,13.08
			c10.06,0.96,22.25,1.44,36.44,1.44c8.18,0,17.02-0.16,26.49-0.48c43.95-1.48,87.03-5.95,87.46-6
			C874.92,1161.55,876.71,1159.33,876.45,1156.86z" class="st22"></path>
		<path d="M692.43,858.12c3.51,2.22,1.76,6.65-2.39,6.38c-31.78-2.1-121.1-1.98-189.91,41.79
			c-30.86,19.63-154.44,103.45-144.27,57.48c3.81-17.22-6.26-37.07-7.15-58.93c-0.55-13.39,5.47-26.92,11.04-33.22
			c28.3-32.01,96.79-60.62,177.75-54.74C625.84,823.29,672.58,845.58,692.43,858.12z" class="st19"></path>
	</g>
</g>
</svg>
