<?xml version="1.0" standalone="no"?><!DOCTYPE svg PUBLIC "-//W3C//DTD SVG 1.1//EN" "http://www.w3.org/Graphics/SVG/1.1/DTD/svg11.dtd"><svg t="1678015570986" class="icon" viewBox="0 0 1024 1024" version="1.1" xmlns="http://www.w3.org/2000/svg" p-id="8338" xmlns:xlink="http://www.w3.org/1999/xlink" width="128" height="128"><path d="M511.867961 1023.998953A512.007562 512.007562 0 0 1 312.623357 40.491199a511.995928 511.995928 0 0 1 398.489208 943.279586A508.64552 508.64552 0 0 1 511.867961 1023.998953z m-49.814059-323.209717a44.392912 44.392912 0 0 0 88.774191 0zM343.649536 612.003411a29.595275 29.595275 0 0 0 0 59.19055h325.617823a29.595275 29.595275 0 0 0 0-59.19055h-14.867437V464.061937A148.534776 148.534776 0 0 0 536.030456 319.01717v-17.705978a29.595275 29.595275 0 0 0-59.19055 0v17.752511a148.534776 148.534776 0 0 0-118.357833 144.998234v147.953107z" fill="#8BD1AE" p-id="8339"></path></svg>